<svg version="1.2" xmlns="http://www.w3.org/2000/svg" viewBox="0 0 1536 400" width="1536" height="400">
	<defs>
		<clipPath clipPathUnits="userSpaceOnUse" id="cp1">
			<path d="m629.21-23.04v423.59h-635.39v-423.59z"/>
		</clipPath>
		<clipPath clipPathUnits="userSpaceOnUse" id="cp2">
			<path d="m1750.03-17.21v423.59l-1122.6-5.87v-423.59z"/>
		</clipPath>
	</defs>
	<style>
		.s0 { fill: #d1cd84 } 
		.s1 { fill: #aba867 } 
		.s2 { fill: #c4c17c } 
		.s3 { fill: #b5b16d } 
		.s4 { fill: #4e6e39 } 
		.s5 { fill: #3a522b } 
		.s6 { fill: #8fa647 } 
		.s7 { fill: #486635 } 
		.s8 { fill: #a0ba50 } 
		.s9 { fill: none;stroke: #435e31;stroke-miterlimit:10;stroke-width: 14 } 
	</style>
	<g id="BACKGROUND">
		<path id="&lt;Path&gt;" fill-rule="evenodd" class="s0" d="m1618-366.33v1132.66h-1699v-1132.66z"/>
	</g>
	<g id="OBJECTS">
		<g id="&lt;Clip Group&gt;" clip-path="url(#cp1)">
			<path id="&lt;Path&gt;" class="s1" d="m511.92 248.05c-2.12-2.5-3.12-5.56-3.06-8.6 2.98-0.02 5.97 1.15 8.18 3.66 0.95 1.09 1.67 2.33 2.16 3.66q0.29-5.69 0.19-11.4c-2.63-0.18-5.21-1.32-7.29-3.34-2.37-2.28-3.67-5.24-3.92-8.29 2.96-0.31 6.07 0.55 8.51 2.84 1.06 0.99 1.9 2.16 2.52 3.44q-0.17-3.38-0.47-6.76c-1.7-1.98-2.87-4.49-3.26-7.32-0.47-3.45 0.29-6.76 1.95-9.44 2.53 1.86 4.41 4.89 4.91 8.5 0.4 2.96-0.2 5.79-1.5 8.07q0.55 6.09 0.66 12.19 0.79-2.01 2.2-3.74c2.16-2.63 5.06-4.12 8.04-4.26 0.25 3.5-0.77 7.07-3.02 9.7-2 2.33-4.59 3.53-7.21 3.72q-0.08 5.77-0.56 11.51 0.99-1.91 2.56-3.48c2.42-2.39 5.45-3.58 8.43-3.42-0.1 3.49-1.47 6.93-3.98 9.31-2.21 2.11-4.91 3.04-7.54 2.97q-0.66 5.72-1.71 11.38 1.18-1.8 2.9-3.21c2.65-2.13 5.78-3 8.73-2.55-0.45 3.46-2.15 6.74-4.89 8.86-2.41 1.87-5.19 2.53-7.8 2.19q-1.23 5.63-2.84 11.16 1.35-1.68 3.2-2.9c2.85-1.86 6.06-2.42 8.95-1.67-0.79 3.4-2.82 6.5-5.76 8.33-2.59 1.63-5.42 2.01-7.98 1.41-3.76 11.51-8.76 22.65-14.98 33.22q-0.91-0.53-1.82-1.07c7.05-11.97 12.51-24.69 16.34-37.83-2.45-0.96-4.58-2.81-5.97-5.34-1.59-2.88-1.95-6.08-1.29-9.03 2.92 0.58 5.62 2.32 7.29 5.21 0.71 1.25 1.17 2.61 1.38 4.01q1.42-5.51 2.46-11.1c-2.54-0.7-4.84-2.33-6.49-4.71-1.86-2.7-2.54-5.84-2.19-8.85 2.97 0.28 5.84 1.74 7.78 4.46 0.84 1.17 1.43 2.48 1.78 3.84q0.86-5.62 1.33-11.29c-2.6-0.44-5.05-1.83-6.92-4.04z"/>
			<g id="&lt;Group&gt;">
				<g id="&lt;Group&gt;">
					<path id="&lt;Path&gt;" class="s2" d="m-75.95 154.36c-1.2 17.31 11.45 32.65 28.86 34.6 4.18 0.47 8.26 0.11 12.09-0.92 5.07 5.22 11.91 8.77 19.7 9.65 11 1.23 21.32-3.17 28.11-10.9 12.54 0.27 23.43-9.06 24.85-21.76q0.33-2.98-0.04-5.82c8.18-1.61 14.74-8.35 15.71-17.08 0.71-6.29-1.64-12.21-5.86-16.29q0.48-1.81 0.7-3.72c1.56-13.88-8.43-26.4-22.31-27.95q-2.2-0.24-4.34-0.11c-3.34-5.68-9.23-9.78-16.28-10.57-8.61-0.96-16.6 3.26-20.87 10.17-5.07-5.21-11.91-8.77-19.7-9.64-15.14-1.7-29.02 7.28-34.13 20.94-7.98 5.11-13.68 13.65-14.82 23.8-1.08 9.72 2.22 18.9 8.33 25.6z"/>
					<path id="&lt;Path&gt;" class="s2" d="m19.16 136.84c-1.6 22.97 15.18 43.32 38.27 45.9 5.55 0.63 10.96 0.16 16.04-1.21 6.73 6.92 15.8 11.64 26.14 12.79 14.59 1.64 28.29-4.2 37.3-14.46 16.62 0.37 31.08-12.02 32.97-28.86q0.43-3.95-0.06-7.72c10.85-2.14 19.55-11.08 20.84-22.66 0.94-8.34-2.18-16.2-7.78-21.62q0.64-2.39 0.93-4.93c2.07-18.42-11.19-35.02-29.6-37.08q-2.92-0.32-5.75-0.14c-4.44-7.54-12.24-12.97-21.6-14.02-11.42-1.28-22.02 4.32-27.68 13.48-6.73-6.91-15.8-11.63-26.14-12.79-20.09-2.25-38.51 9.67-45.28 27.79-10.59 6.78-18.15 18.1-19.66 31.58-1.44 12.88 2.95 25.07 11.06 33.95z"/>
				</g>
				<g id="&lt;Group&gt;">
					<path id="&lt;Path&gt;" class="s2" d="m127.4 55.46c-1.21 17.31 11.45 32.65 28.86 34.61 4.17 0.46 8.25 0.11 12.08-0.92 5.07 5.21 11.91 8.77 19.71 9.64 10.99 1.24 21.32-3.17 28.11-10.9 12.53 0.28 23.43-9.06 24.85-21.76q0.32-2.97-0.04-5.82c8.18-1.6 14.73-8.35 15.71-17.07 0.71-6.29-1.65-12.21-5.86-16.3q0.48-1.8 0.7-3.72c1.55-13.88-8.44-26.39-22.32-27.95q-2.2-0.24-4.34-0.1c-3.34-5.68-9.22-9.78-16.27-10.57-8.61-0.96-16.6 3.25-20.87 10.17-5.07-5.22-11.91-8.77-19.7-9.65-15.15-1.69-29.03 7.29-34.13 20.95-7.98 5.11-13.68 13.65-14.82 23.8-1.09 9.71 2.22 18.9 8.33 25.59z"/>
					<path id="&lt;Path&gt;" class="s2" d="m222.5 37.95c-1.6 22.96 15.19 43.31 38.28 45.9 5.54 0.62 10.96 0.15 16.04-1.21 6.72 6.91 15.8 11.63 26.14 12.79 14.59 1.64 28.29-4.2 37.29-14.46 16.63 0.36 31.08-12.02 32.97-28.87q0.43-3.94-0.06-7.72c10.86-2.13 19.55-11.08 20.85-22.65 0.94-8.34-2.18-16.2-7.78-21.62q0.64-2.4 0.93-4.94c2.06-18.41-11.19-35.01-29.6-37.07q-2.92-0.32-5.76-0.15c-4.43-7.53-12.23-12.96-21.59-14.01-11.42-1.28-22.03 4.31-27.69 13.48-6.72-6.91-15.8-11.63-26.13-12.79-20.1-2.25-38.51 9.67-45.28 27.79-10.59 6.78-18.15 18.1-19.66 31.58-1.44 12.88 2.94 25.07 11.05 33.95z"/>
				</g>
			</g>
			<g id="&lt;Group&gt;">
				<g id="&lt;Group&gt;">
					<path id="&lt;Path&gt;" fill-rule="evenodd" class="s1" d="m68.6-41.35v374.86h-31.14v-374.86z"/>
				</g>
				<g id="&lt;Group&gt;">
					<path id="&lt;Path&gt;" class="s1" d="m37.46 136.83c-20.23 0-36.69-16.45-36.69-36.68v-141.5h16.95v141.5c0 10.88 8.86 19.74 19.74 19.74z"/>
				</g>
			</g>
			<g id="&lt;Group&gt;">
				<g id="&lt;Group&gt;">
					<path id="&lt;Path&gt;" fill-rule="evenodd" class="s1" d="m616.19-72.1v478.31h-31.13v-478.31z"/>
				</g>
				<g id="&lt;Group&gt;">
					<path id="&lt;Path&gt;" class="s1" d="m585.06 209.53c-20.23 0-36.69-16.46-36.69-36.69v-244.94h16.94v244.94c0 10.89 8.86 19.75 19.75 19.75z"/>
				</g>
			</g>
			<path id="&lt;Path&gt;" class="s3" d="m141.44 190.14c-18.83 0-34.15-15.32-34.15-34.14v-189.29h11.86v189.29c0 12.28 10 22.28 22.29 22.28zm12.83-63.89v-11.86c12.29 0 22.29-10 22.29-22.28v-189.29h11.86v189.29c0 18.82-15.32 34.14-34.15 34.14zm4.21-166.68v374.85h-23v-374.85z"/>
			<path id="&lt;Path&gt;" class="s3" d="m377.98 172.77c18.83 0 34.15-15.31 34.15-34.14v-189.29h-11.86v189.29c0 12.29-10 22.28-22.29 22.28zm-12.83-63.89v-11.86c-12.29 0-22.29-10-22.29-22.28v-189.29h-11.86v189.29c0 18.82 15.32 34.14 34.15 34.14zm18.79-166.68v374.86h-23v-374.86zm-140.25 324.55c-18.83 0-34.15-15.32-34.15-34.15v-288.84h11.86v288.84c0 12.29 10 22.29 22.29 22.29zm12.83-79.81v-11.86c12.29 0 22.29-10 22.29-22.29v-189.28h11.86v189.28c0 18.83-15.32 34.15-34.15 34.15zm4.21-251.58v437.93h-23v-437.93z"/>
			<path id="&lt;Path&gt;" class="s1" d="m291.22 323.67c-1.33-9.26-9.03-16.61-18.73-17.15-3.88-0.22-7.55 0.7-10.73 2.44-4.69-10.37-15.1-17.59-27.22-17.59-3.78 0-7.38 0.73-10.7 2.01-8.28-15.49-24.6-26.02-43.38-26.02-18.8 0-35.13 10.55-43.4 26.05-5.21-4.33-11.9-6.94-19.2-6.94-3.92 0-7.65 0.76-11.08 2.12-5.08-20.22-23.38-35.18-45.17-35.18-9.14 0-17.66 2.64-24.85 7.19-9.67-20.25-30.33-34.24-54.27-34.24-27.33 0-50.39 18.26-57.69 43.24-18.57 2.85-32.8 18.9-32.8 38.27 0 5.63 1.21 10.97 3.37 15.8z"/>
			<path id="&lt;Path&gt;" class="s1" d="m406.52 260.55c-4.05-3.13-6.57-7.47-7.47-12.12 4.54-0.99 9.49-0.18 13.66 2.93 1.81 1.34 3.31 3 4.48 4.87q-1.4-8.76-3.41-17.43c-4.06 0.57-8.36-0.33-12.2-2.72-4.34-2.72-7.28-6.81-8.66-11.37 4.41-1.44 9.42-1.13 13.9 1.57 1.93 1.16 3.6 2.67 4.95 4.42q-1.35-5.1-2.92-10.15c-3.22-2.47-5.82-5.91-7.33-10.1-1.84-5.1-1.75-10.4-0.11-15.02 4.47 2.01 8.32 6.03 10.25 11.35 1.58 4.38 1.58 8.9 0.33 12.8q2.82 9.11 4.97 18.36c0.37-2.2 1.07-4.36 2.14-6.41 2.45-4.71 6.37-7.92 10.87-9.11 1.52 5.25 1.13 11.03-1.46 15.77-2.28 4.19-5.84 6.86-9.78 8.01q1.75 8.82 2.89 17.73c0.6-2.14 1.51-4.22 2.78-6.14 2.91-4.43 7.14-7.22 11.74-7.95 0.98 5.35 0.01 11.04-3.05 15.49-2.69 3.93-6.5 6.22-10.53 6.97q0.85 8.93 1.1 17.9c0.8-2.07 1.92-4.04 3.37-5.83 3.34-4.11 7.83-6.46 12.48-6.73 0.44 5.42-1.1 10.98-4.58 15.09-3.07 3.64-7.09 5.54-11.18 5.88q-0.04 8.97-0.7 17.93c1.01-1.98 2.32-3.83 3.94-5.46 3.74-3.76 8.44-5.65 13.09-5.45-0.1 5.43-2.19 10.82-6.07 14.57-3.42 3.32-7.61 4.82-11.71 4.74-1.98 18.75-5.99 37.36-12.04 55.5q-1.56-0.52-3.12-1.04c6.85-20.54 11.05-41.7 12.62-62.98-4.05-0.66-7.89-2.79-10.84-6.2-3.35-3.87-4.94-8.62-4.9-13.34 4.64-0.07 9.33 1.71 12.8 5.58 1.5 1.67 2.65 3.6 3.42 5.66q0.37-8.86 0.13-17.72c-4.1-0.24-8.13-1.98-11.41-5.07-3.71-3.51-5.78-8.08-6.21-12.78 4.61-0.53 9.46 0.76 13.3 4.27 1.66 1.51 2.99 3.31 3.97 5.28q-0.52-8.84-1.64-17.64c-4.11 0.17-8.29-1.16-11.86-3.91z"/>
			<path id="&lt;Path&gt;" class="s1" d="m311.51 323.67c1.43-9.98 9.73-17.9 20.18-18.49 4.19-0.23 8.15 0.76 11.57 2.64 5.06-11.18 16.28-18.97 29.35-18.97 4.07 0 7.95 0.79 11.53 2.17 8.93-16.69 26.52-28.05 46.77-28.05 20.26 0 37.86 11.37 46.78 28.08 5.61-4.67 12.82-7.48 20.69-7.48 4.22 0 8.24 0.82 11.94 2.28 5.49-21.78 25.2-37.92 48.69-37.92 9.86 0 19.04 2.85 26.79 7.75 10.43-21.82 32.7-36.9 58.5-36.9 29.47 0 54.32 19.68 62.19 46.61 20.02 3.07 35.35 20.36 35.35 41.25 0 6.06-1.3 11.83-3.63 17.03z"/>
			<path id="&lt;Path&gt;" class="s4" d="m407.56 323.67c-0.45-3.11-3.03-5.57-6.28-5.76-1.31-0.07-2.54 0.24-3.6 0.82-1.58-3.48-5.07-5.9-9.14-5.9-1.27 0-2.47 0.24-3.59 0.67-2.78-5.19-8.26-8.73-14.56-8.73-6.31 0-11.79 3.54-14.56 8.74-1.75-1.45-4-2.32-6.45-2.32-1.31 0-2.56 0.25-3.71 0.71-1.71-6.79-7.85-11.81-15.16-11.81-3.07 0-5.93 0.89-8.34 2.41-3.24-6.79-10.18-11.48-18.21-11.48-9.17 0-16.91 6.12-19.36 14.5-6.23 0.96-11.01 6.35-11.01 12.85 0 1.88 0.41 3.68 1.13 5.3z"/>
			<path id="&lt;Path&gt;" class="s4" d="m274.25 270.08c3.6-0.9 6.52-3.05 8.47-5.87-2.72-1.98-6.24-2.88-9.91-2.02-1.59 0.37-3.07 1.03-4.39 1.93q3.47-5.41 7.32-10.57c2.53 1.55 5.65 2.2 8.88 1.73 3.67-0.55 6.81-2.41 9.05-5.03-2.51-2.24-5.93-3.48-9.68-2.99-1.62 0.21-3.16 0.73-4.57 1.49q2.38-2.99 4.88-5.88c2.86-0.71 5.58-2.24 7.8-4.58 2.7-2.85 4.18-6.39 4.42-9.94-3.54 0.04-7.27 1.59-10.09 4.57-2.32 2.45-3.63 5.44-3.93 8.39q-4.51 5.23-8.62 10.74c0.39-1.56 0.55-3.2 0.44-4.87-0.26-3.84-1.93-7.1-4.57-9.2-2.54 3.04-3.95 6.99-3.61 10.89 0.3 3.44 1.89 6.25 4.17 8.15q-3.72 5.34-7.06 10.92c0.23-1.59 0.22-3.23-0.06-4.87-0.65-3.79-2.65-6.87-5.48-8.69-2.21 3.27-3.21 7.33-2.48 11.16 0.65 3.39 2.51 6.02 4.97 7.68q-3.15 5.68-5.92 11.56c0.07-1.6-0.1-3.24-0.55-4.84-1.02-3.7-3.32-6.56-6.32-8.08-1.87 3.46-2.46 7.59-1.34 11.34 0.98 3.3 3.1 5.73 5.71 7.14q-2.57 5.96-4.73 12.1c-0.1-1.61-0.43-3.22-1.03-4.77-1.39-3.58-3.97-6.19-7.11-7.41-1.5 3.64-1.68 7.81-0.2 11.43 1.31 3.19 3.66 5.4 6.4 6.54-4.12 13.01-6.86 26.52-8.11 40.31q1.19 0.11 2.37 0.21c1.42-15.61 4.76-30.87 9.89-45.44 2.88 0.74 6.05 0.44 9-0.97 3.34-1.59 5.77-4.28 7.12-7.43-3.06-1.39-6.69-1.57-10.12-0.01-1.48 0.68-2.8 1.62-3.91 2.76q2.33-5.98 5.05-11.79c2.79 1.03 5.97 1.04 9.04-0.06 3.49-1.25 6.18-3.68 7.83-6.68-2.9-1.69-6.49-2.23-10.06-1.02-1.54 0.52-2.95 1.33-4.17 2.36q2.91-5.72 6.21-11.23c2.67 1.3 5.84 1.63 9 0.84z"/>
			<path id="&lt;Path&gt;" class="s5" d="m291.28 316.39l23.37-7.87q-0.29-0.9-0.61-1.78l-12.06 1.09 10.74-4.4c-2.25-5.1-5.32-9.76-9.05-13.8l-16.67 10.25 14.49-12.47q-0.76-0.74-1.56-1.43l-10.18 5.65 7.44-7.9c-5.11-3.9-10.98-6.84-17.37-8.55l-7.19 10.64 2.58-11.65q-1.09-0.19-2.19-0.33l-6.26 15.04 1.71-15.39q-0.85-0.03-1.71-0.03c-7.08 0-13.81 1.46-19.92 4.11-0.74 5.9-1.41 11.38-1.41 11.92 0 0.59-1.08-4.64-2.19-10.19q-0.83 0.44-1.64 0.91l1.08 18.35-4.6-16.11c-5.27 3.68-9.8 8.34-13.33 13.72l2.64 11.66-4.82-8.02q-1.51 2.79-2.66 5.78l9.62 10.8-11.09-6.41c-1.23 4.35-1.89 8.94-1.89 13.69h100.42c0-4-0.47-7.89-1.35-11.62z"/>
			<path id="&lt;Path&gt;" class="s4" d="m210.89 284.42c2.85-0.72 5.18-2.43 6.72-4.67-2.16-1.57-4.95-2.28-7.87-1.61-1.26 0.29-2.44 0.82-3.48 1.54q2.75-4.3 5.81-8.4c2.01 1.24 4.48 1.75 7.05 1.37 2.92-0.43 5.41-1.91 7.19-3.99-2-1.78-4.71-2.77-7.69-2.38-1.28 0.17-2.51 0.58-3.62 1.19q1.88-2.37 3.87-4.67c2.27-0.57 4.43-1.78 6.19-3.64 2.15-2.26 3.32-5.07 3.52-7.89-2.82 0.03-5.78 1.26-8.02 3.63-1.84 1.94-2.88 4.32-3.12 6.66q-3.59 4.15-6.85 8.53 0.48-1.87 0.35-3.86c-0.2-3.06-1.53-5.65-3.63-7.31-2.01 2.41-3.14 5.55-2.86 8.64 0.23 2.74 1.49 4.97 3.3 6.48q-2.95 4.24-5.6 8.67 0.28-1.9-0.05-3.87c-0.51-3.01-2.1-5.45-4.35-6.89-1.76 2.59-2.55 5.81-1.97 8.86 0.51 2.69 1.99 4.78 3.95 6.1q-2.51 4.51-4.7 9.18 0.08-1.93-0.44-3.85c-0.81-2.94-2.64-5.21-5.03-6.42-1.48 2.75-1.94 6.04-1.06 9.01 0.78 2.63 2.46 4.55 4.54 5.67q-2.04 4.74-3.76 9.61-0.11-1.92-0.82-3.78c-1.1-2.85-3.15-4.92-5.64-5.89-1.2 2.89-1.34 6.2-0.16 9.08 1.04 2.53 2.9 4.29 5.08 5.19-3.27 10.34-5.45 21.07-6.44 32.02q0.94 0.09 1.88 0.17c1.13-12.4 3.79-24.52 7.86-36.09 2.29 0.58 4.8 0.34 7.14-0.77 2.66-1.27 4.59-3.41 5.66-5.91-2.43-1.1-5.31-1.25-8.04 0-1.17 0.53-2.22 1.28-3.1 2.19q1.85-4.75 4.01-9.37c2.22 0.82 4.74 0.83 7.18-0.04 2.77-1 4.91-2.93 6.22-5.31-2.31-1.34-5.16-1.77-7.99-0.81-1.23 0.42-2.34 1.06-3.31 1.87q2.31-4.54 4.93-8.92c2.12 1.04 4.63 1.3 7.15 0.68z"/>
			<path id="&lt;Path&gt;" class="s4" d="m361.86 282.74c-3.6-0.9-6.52-3.05-8.47-5.88 2.72-1.97 6.24-2.87 9.91-2.01 1.59 0.36 3.07 1.03 4.39 1.93q-3.48-5.41-7.32-10.58c-2.53 1.56-5.65 2.21-8.88 1.74-3.68-0.55-6.81-2.41-9.05-5.04 2.51-2.23 5.93-3.48 9.68-2.99 1.62 0.21 3.16 0.73 4.56 1.5q-2.37-2.99-4.87-5.89c-2.86-0.7-5.58-2.23-7.8-4.57-2.7-2.85-4.18-6.39-4.42-9.94 3.54 0.04 7.26 1.59 10.08 4.57 2.32 2.44 3.64 5.44 3.94 8.39q4.51 5.22 8.62 10.74c-0.39-1.56-0.55-3.2-0.44-4.87 0.26-3.84 1.93-7.11 4.57-9.2 2.53 3.04 3.95 6.99 3.61 10.89-0.3 3.44-1.89 6.24-4.17 8.14q3.72 5.35 7.06 10.93c-0.23-1.59-0.22-3.23 0.06-4.88 0.65-3.78 2.64-6.86 5.48-8.68 2.21 3.27 3.21 7.33 2.47 11.16-0.64 3.39-2.5 6.02-4.96 7.68q3.15 5.68 5.91 11.56c-0.06-1.61 0.11-3.24 0.55-4.84 1.03-3.7 3.33-6.56 6.33-8.08 1.87 3.46 2.46 7.59 1.34 11.33-0.98 3.31-3.1 5.74-5.71 7.15q2.57 5.96 4.73 12.1c0.1-1.61 0.43-3.22 1.03-4.77 1.39-3.58 3.96-6.2 7.11-7.41 1.5 3.63 1.68 7.81 0.2 11.42-1.31 3.2-3.66 5.41-6.4 6.55 4.12 13.01 6.86 26.52 8.11 40.31q-1.19 0.11-2.37 0.21c-1.42-15.61-4.77-30.87-9.89-45.44-2.89 0.74-6.05 0.44-9-0.97-3.34-1.6-5.78-4.29-7.12-7.43 3.06-1.39 6.69-1.57 10.12-0.01 1.48 0.67 2.79 1.62 3.9 2.76q-2.32-5.98-5.04-11.79c-2.8 1.02-5.97 1.04-9.05-0.06-3.48-1.25-6.17-3.68-7.82-6.68 2.9-1.69 6.49-2.23 10.06-1.02 1.54 0.52 2.95 1.33 4.16 2.35q-2.9-5.71-6.2-11.22c-2.67 1.3-5.84 1.63-9 0.84z"/>
			<path id="&lt;Path&gt;" class="s4" d="m483.2 284.42c-2.85-0.72-5.18-2.43-6.73-4.67 2.17-1.57 4.96-2.28 7.88-1.61 1.26 0.29 2.44 0.82 3.48 1.54q-2.76-4.3-5.81-8.4c-2.01 1.24-4.49 1.75-7.06 1.37-2.91-0.43-5.4-1.91-7.18-3.99 1.99-1.78 4.71-2.77 7.69-2.38 1.28 0.17 2.51 0.58 3.62 1.19q-1.89-2.37-3.87-4.67c-2.27-0.57-4.43-1.78-6.2-3.64-2.14-2.26-3.31-5.07-3.51-7.89 2.82 0.03 5.77 1.26 8.01 3.63 1.85 1.94 2.89 4.32 3.13 6.66q3.58 4.15 6.85 8.53-0.48-1.87-0.35-3.86c0.2-3.06 1.53-5.65 3.63-7.31 2.01 2.41 3.13 5.55 2.86 8.64-0.23 2.74-1.5 4.97-3.31 6.48q2.96 4.24 5.61 8.67-0.28-1.9 0.05-3.87c0.51-3.01 2.1-5.45 4.35-6.89 1.75 2.59 2.55 5.81 1.97 8.86-0.52 2.69-2 4.78-3.95 6.1q2.51 4.51 4.7 9.18-0.09-1.93 0.44-3.85c0.81-2.94 2.64-5.21 5.02-6.42 1.48 2.75 1.95 6.04 1.07 9.01-0.78 2.63-2.47 4.55-4.54 5.67q2.04 4.74 3.76 9.61 0.1-1.92 0.82-3.78c1.1-2.85 3.14-4.92 5.64-5.89 1.2 2.89 1.34 6.2 0.16 9.08-1.04 2.53-2.9 4.29-5.08 5.19 3.27 10.34 5.45 21.07 6.44 32.02q-0.94 0.09-1.89 0.17c-1.12-12.4-3.78-24.52-7.85-36.09-2.29 0.58-4.8 0.34-7.14-0.77-2.66-1.27-4.59-3.41-5.66-5.91 2.43-1.1 5.31-1.25 8.03 0 1.18 0.53 2.23 1.28 3.11 2.19q-1.85-4.75-4.01-9.37c-2.22 0.82-4.74 0.83-7.18-0.04-2.77-1-4.91-2.93-6.22-5.31 2.31-1.34 5.16-1.77 7.99-0.81 1.23 0.42 2.34 1.06 3.31 1.87q-2.31-4.54-4.93-8.92c-2.12 1.04-4.63 1.3-7.15 0.68z"/>
			<path id="&lt;Path&gt;" class="s4" d="m221.01 318.93l15.21-5.12q-0.19-0.59-0.39-1.16l-7.86 0.71 7-2.87c-1.47-3.32-3.47-6.35-5.9-8.98l-10.85 6.68 9.44-8.12q-0.5-0.48-1.02-0.94l-6.63 3.69 4.85-5.15c-3.33-2.54-7.15-4.45-11.31-5.57l-4.68 6.94 1.68-7.59q-0.71-0.12-1.43-0.21l-4.07 9.79 1.11-10.02q-0.55-0.02-1.11-0.02c-4.61 0-8.99 0.95-12.97 2.67-0.48 3.84-0.92 7.41-0.92 7.76 0 0.39-0.7-3.02-1.42-6.63q-0.54 0.28-1.06 0.59l0.69 11.95-2.99-10.49c-3.43 2.39-6.38 5.43-8.68 8.93l1.73 7.59-3.14-5.22q-0.99 1.82-1.74 3.76l6.27 7.03-7.22-4.17c-0.8 2.83-1.23 5.82-1.23 8.91h65.36q-0.01-3.91-0.88-7.56z"/>
			<path id="&lt;Path&gt;" class="s5" d="m406.13 318.93l15.21-5.12q-0.19-0.59-0.39-1.16l-7.86 0.71 7-2.87c-1.47-3.32-3.47-6.35-5.9-8.98l-10.85 6.68 9.44-8.12q-0.5-0.48-1.02-0.94l-6.63 3.69 4.85-5.15c-3.33-2.54-7.15-4.45-11.31-5.57l-4.68 6.94 1.68-7.59q-0.71-0.12-1.42-0.21l-4.08 9.79 1.11-10.02q-0.55-0.02-1.11-0.02c-4.61 0-8.99 0.95-12.97 2.67-0.48 3.84-0.91 7.41-0.91 7.76 0 0.39-0.71-3.02-1.43-6.63q-0.54 0.28-1.06 0.59l0.69 11.95-2.99-10.49c-3.43 2.39-6.38 5.43-8.67 8.93l1.72 7.59-3.14-5.22q-0.98 1.82-1.74 3.76l6.27 7.03-7.22-4.17c-0.8 2.83-1.23 5.82-1.23 8.91h65.36q0-3.91-0.88-7.56z"/>
			<path id="&lt;Path&gt;" class="s4" d="m457.01 317.16l20.9-7.04q-0.25-0.8-0.54-1.6l-10.79 0.98 9.61-3.94c-2.01-4.56-4.76-8.72-8.1-12.34l-14.91 9.18 12.97-11.17q-0.69-0.65-1.4-1.28l-9.1 5.06 6.65-7.06c-4.57-3.49-9.83-6.12-15.53-7.66l-6.44 9.53 2.31-10.43q-0.97-0.16-1.96-0.29l-5.6 13.45 1.53-13.76q-0.76-0.03-1.53-0.03c-6.33 0-12.35 1.31-17.82 3.67-0.66 5.28-1.26 10.18-1.26 10.67 0 0.53-0.96-4.15-1.96-9.12q-0.74 0.4-1.46 0.81l0.96 16.42-4.11-14.41c-4.71 3.29-8.77 7.46-11.93 12.27l2.37 10.43-4.31-7.17q-1.35 2.5-2.39 5.17l8.61 9.66-9.92-5.74c-1.1 3.9-1.69 8-1.69 12.25h89.83c0-3.58-0.43-7.06-1.22-10.39z"/>
			<path id="&lt;Path&gt;" class="s6" d="m-0.98 209.97c4.6-1.15 8.35-3.91 10.84-7.53-3.48-2.53-7.99-3.68-12.7-2.59-2.03 0.48-3.93 1.33-5.61 2.48q4.45-6.92 9.37-13.55c3.24 2 7.23 2.83 11.38 2.22 4.7-0.69 8.72-3.08 11.58-6.44-3.21-2.87-7.59-4.46-12.39-3.83-2.08 0.27-4.05 0.93-5.85 1.91q3.04-3.83 6.25-7.54c3.66-0.9 7.14-2.86 9.99-5.86 3.45-3.65 5.35-8.18 5.66-12.73-4.54 0.06-9.31 2.04-12.92 5.85-2.97 3.14-4.66 6.98-5.04 10.75q-5.78 6.7-11.04 13.76c0.5-2 0.71-4.1 0.56-6.23-0.33-4.93-2.47-9.11-5.85-11.79-3.25 3.9-5.06 8.95-4.62 13.94 0.38 4.41 2.41 8.01 5.33 10.44q-4.76 6.85-9.04 14c0.29-2.04 0.29-4.15-0.07-6.25-0.84-4.85-3.4-8.79-7.03-11.12-2.82 4.18-4.11 9.38-3.17 14.3 0.83 4.34 3.22 7.7 6.37 9.83q-4.05 7.28-7.58 14.81c0.08-2.06-0.14-4.15-0.71-6.21-1.31-4.73-4.26-8.39-8.1-10.35-2.39 4.44-3.15 9.73-1.72 14.53 1.26 4.23 3.97 7.34 7.32 9.14q-3.3 7.65-6.07 15.51c-0.12-2.06-0.54-4.12-1.31-6.11-1.79-4.59-5.08-7.94-9.1-9.49-1.94 4.65-2.16 10-0.26 14.63 1.67 4.1 4.68 6.92 8.19 8.38-5.28 16.68-8.79 33.98-10.38 51.64q1.52 0.14 3.03 0.28c1.81-20.01 6.1-39.55 12.67-58.22 3.69 0.95 7.75 0.56 11.52-1.23 4.28-2.05 7.41-5.5 9.12-9.53-3.92-1.78-8.56-2.01-12.95-0.01-1.9 0.87-3.59 2.08-5.01 3.54q2.98-7.67 6.47-15.11c3.58 1.32 7.65 1.34 11.58-0.07 4.47-1.6 7.91-4.72 10.03-8.56-3.72-2.16-8.32-2.86-12.89-1.31-1.98 0.67-3.78 1.71-5.34 3.02q3.73-7.32 7.95-14.38c3.43 1.66 7.48 2.09 11.54 1.08z"/>
			<path id="&lt;Path&gt;" class="s1" d="m95.6 254.16c4.96-1.24 9-4.22 11.69-8.12-3.76-2.72-8.62-3.96-13.69-2.78-2.2 0.51-4.24 1.43-6.06 2.67q4.8-7.47 10.11-14.61c3.49 2.16 7.8 3.05 12.27 2.4 5.07-0.76 9.4-3.33 12.49-6.95-3.47-3.09-8.19-4.81-13.37-4.13-2.23 0.29-4.36 1-6.3 2.06q3.28-4.13 6.74-8.13c3.94-0.97 7.69-3.08 10.76-6.32 3.73-3.93 5.77-8.82 6.11-13.72-4.9 0.06-10.04 2.19-13.93 6.31-3.21 3.38-5.02 7.51-5.43 11.58q-6.24 7.22-11.91 14.84c0.54-2.16 0.76-4.42 0.61-6.72-0.36-5.31-2.67-9.82-6.31-12.71-3.5 4.2-5.46 9.65-4.99 15.03 0.41 4.76 2.61 8.63 5.76 11.26q-5.14 7.38-9.75 15.09c0.31-2.2 0.31-4.47-0.08-6.74-0.9-5.23-3.66-9.48-7.57-11.99-3.05 4.51-4.44 10.12-3.42 15.41 0.89 4.68 3.46 8.31 6.86 10.61q-4.36 7.84-8.17 15.96c0.09-2.22-0.15-4.47-0.76-6.69-1.42-5.11-4.59-9.05-8.74-11.16-2.57 4.79-3.39 10.49-1.85 15.66 1.36 4.57 4.28 7.92 7.89 9.86q-3.55 8.24-6.54 16.72c-0.13-2.22-0.59-4.44-1.42-6.59-1.92-4.94-5.47-8.55-9.81-10.23-2.08 5.02-2.33 10.78-0.28 15.78 1.81 4.41 5.05 7.46 8.84 9.03-5.7 17.98-9.48 36.64-11.2 55.68q1.64 0.14 3.27 0.29c1.96-21.56 6.58-42.63 13.66-62.76 3.98 1.02 8.35 0.6 12.42-1.33 4.62-2.21 7.98-5.93 9.84-10.27-4.23-1.92-9.24-2.17-13.97-0.01-2.05 0.93-3.87 2.23-5.4 3.81q3.21-8.26 6.97-16.28c3.86 1.41 8.25 1.44 12.49-0.08 4.81-1.73 8.53-5.09 10.81-9.23-4.01-2.33-8.97-3.08-13.9-1.41-2.13 0.72-4.07 1.84-5.75 3.25q4.02-7.89 8.57-15.5c3.69 1.79 8.06 2.25 12.44 1.16z"/>
			<path id="&lt;Path&gt;" class="s1" d="m187.48 244.83c3.42-2.25 5.69-5.57 6.7-9.23-3.57-1.07-7.57-0.73-11.1 1.51-1.52 0.96-2.83 2.2-3.87 3.61q1.65-6.91 3.78-13.72c3.22 0.71 6.71 0.25 9.92-1.43 3.64-1.91 6.23-5 7.61-8.56-3.44-1.42-7.46-1.47-11.2 0.41-1.62 0.81-3.04 1.92-4.23 3.23q1.39-3.99 2.95-7.93c2.73-1.78 5.01-4.37 6.48-7.63 1.78-3.96 2.03-8.2 0.99-11.99-3.69 1.33-7.01 4.31-8.87 8.45-1.53 3.4-1.81 7.01-1.05 10.2q-2.81 7.11-5.08 14.38c-0.17-1.78-0.6-3.55-1.32-5.25-1.67-3.92-4.62-6.73-8.14-7.95-1.54 4.1-1.57 8.74 0.21 12.69 1.56 3.49 4.25 5.84 7.32 6.99q-1.93 6.95-3.38 14c-0.35-1.75-0.95-3.46-1.84-5.08-2.06-3.72-5.27-6.2-8.9-7.07-1.11 4.22-0.68 8.83 1.49 12.57 1.91 3.3 4.81 5.37 7.99 6.21q-1.22 7.08-1.96 14.24c-0.52-1.71-1.29-3.35-2.34-4.86-2.43-3.49-5.87-5.64-9.57-6.14-0.68 4.3 0.21 8.84 2.74 12.34 2.24 3.09 5.33 4.86 8.58 5.37q-0.51 7.18-0.53 14.38c-0.69-1.65-1.62-3.21-2.82-4.61-2.76-3.23-6.4-5.02-10.12-5.15-0.25 4.35 1.09 8.78 3.96 12.01 2.53 2.87 5.79 4.31 9.07 4.5 0.44 15.11 2.51 30.22 6.24 45.09q1.28-0.33 2.56-0.65c-4.22-16.83-6.29-33.99-6.26-51.09 3.28-0.28 6.48-1.75 9.05-4.29 2.91-2.89 4.47-6.59 4.72-10.37-3.7-0.34-7.56 0.8-10.57 3.68-1.3 1.25-2.33 2.72-3.07 4.31q0.24-7.1 0.97-14.16c3.29 0.05 6.62-1.09 9.43-3.36 3.18-2.58 5.1-6.1 5.73-9.84-3.65-0.7-7.6 0.04-10.88 2.61-1.42 1.11-2.59 2.47-3.49 3.98q0.95-7.04 2.38-14c3.27 0.38 6.7-0.42 9.72-2.4z"/>
			<path id="&lt;Path&gt;" class="s1" d="m321.29 295.79c-3.65-1.86-6.27-4.92-7.67-8.45 3.43-1.45 7.45-1.54 11.2 0.3 1.62 0.79 3.05 1.88 4.24 3.18q-2.39-6.7-5.25-13.23c-3.12 1.05-6.64 0.97-10.01-0.35-3.83-1.5-6.74-4.29-8.5-7.68 3.26-1.79 7.26-2.27 11.18-0.81 1.69 0.63 3.23 1.57 4.55 2.75q-1.82-3.82-3.79-7.56c-2.9-1.48-5.46-3.8-7.27-6.88-2.2-3.75-2.91-7.93-2.29-11.82 3.81 0.93 7.44 3.52 9.74 7.44 1.89 3.22 2.56 6.78 2.15 10.03q3.56 6.76 6.62 13.73c-0.03-1.78 0.2-3.59 0.74-5.36 1.23-4.08 3.85-7.18 7.22-8.78 1.97 3.91 2.52 8.52 1.17 12.64-1.17 3.64-3.59 6.26-6.52 7.75q2.68 6.69 4.89 13.54c0.15-1.78 0.56-3.55 1.28-5.25 1.64-3.92 4.56-6.74 8.07-7.99 1.57 4.07 1.64 8.7-0.11 12.65-1.54 3.49-4.21 5.86-7.27 7.04q1.98 6.91 3.5 13.94c0.32-1.75 0.92-3.46 1.8-5.08 2.03-3.74 5.22-6.24 8.83-7.14 1.15 4.2 0.76 8.81-1.38 12.56-1.88 3.32-4.77 5.41-7.94 6.28q1.29 7.07 2.09 14.23c0.5-1.71 1.26-3.36 2.3-4.89 2.39-3.51 5.81-5.69 9.5-6.22 0.72 4.3-0.13 8.85-2.63 12.38-2.2 3.12-5.29 4.91-8.53 5.45 1.2 15.07 0.79 30.32-1.31 45.5q-1.3-0.18-2.61-0.36c2.37-17.19 2.57-34.48 0.67-51.47-3.29 0.07-6.63-1.04-9.46-3.29-3.2-2.56-5.16-6.06-5.82-9.79 3.65-0.74 7.6-0.03 10.91 2.51 1.43 1.1 2.61 2.45 3.52 3.95q-1.01-7.03-2.5-13.97c-3.27 0.41-6.7-0.36-9.74-2.32-3.44-2.22-5.74-5.51-6.77-9.15 3.55-1.1 7.56-0.79 11.11 1.4 1.53 0.95 2.84 2.18 3.9 3.58q-1.71-6.89-3.89-13.65c-3.21 0.73-6.7 0.31-9.92-1.34z"/>
			<g id="&lt;Group&gt;">
				<g id="&lt;Group&gt;">
					<path id="&lt;Path&gt;" class="s5" d="m38.11 255.39c-10.34 25.71-14.93 51.55-14.31 74.58 16.4-16.19 30.98-38.01 41.32-63.72 10.34-25.71 14.93-51.55 14.31-74.58-16.4 16.19-30.98 38.01-41.32 63.72z"/>
					<path id="&lt;Path&gt;" class="s7" d="m79.43 191.67l-55.63 138.3c16.4-16.19 30.98-38.01 41.32-63.72 10.34-25.71 14.93-51.55 14.31-74.58z"/>
				</g>
				<g id="&lt;Group&gt;">
					<path id="&lt;Path&gt;" class="s5" d="m56.28 282.35c-11.83 19.58-18.98 40.03-21.52 58.89 15.51-11.03 30.27-26.89 42.09-46.48 11.82-19.58 18.98-40.04 21.51-58.89-15.5 11.03-30.26 26.89-42.08 46.48z"/>
					<path id="&lt;Path&gt;" class="s7" d="m98.36 235.87l-63.6 105.37c15.51-11.03 30.27-26.89 42.09-46.48 11.82-19.58 18.98-40.04 21.51-58.89z"/>
				</g>
				<g id="&lt;Group&gt;">
					<path id="&lt;Path&gt;" class="s5" d="m20.38 233.64c-4.24 27.38-2.86 53.59 2.96 75.89 12.31-19.49 21.56-44.05 25.81-71.43 4.24-27.38 2.86-53.59-2.96-75.89-12.31 19.49-21.56 44.05-25.81 71.43z"/>
					<path id="&lt;Path&gt;" class="s7" d="m46.19 162.21l-22.85 147.32c12.31-19.49 21.56-44.05 25.81-71.43 4.24-27.38 2.86-53.59-2.96-75.89z"/>
				</g>
				<g id="&lt;Group&gt;">
					<path id="&lt;Path&gt;" class="s5" d="m-0.37 261.24c0.81 22.9 6.01 43.98 14.21 61.18 6.96-17.74 10.66-39.13 9.85-62.02-0.81-22.9-6.01-43.98-14.2-61.18-6.97 17.74-10.66 39.13-9.86 62.02z"/>
					<path id="&lt;Path&gt;" class="s7" d="m9.49 199.22l4.35 123.2c6.96-17.74 10.66-39.13 9.85-62.02-0.81-22.9-6.01-43.98-14.2-61.18z"/>
				</g>
			</g>
			<path id="&lt;Path&gt;" class="s6" d="m600.62 166.5c-4.22-2.17-7.25-5.71-8.86-9.79 3.97-1.68 8.62-1.78 12.96 0.35 1.87 0.92 3.52 2.18 4.9 3.68q-2.76-7.75-6.06-15.31c-3.61 1.21-7.68 1.12-11.58-0.41-4.43-1.75-7.8-4.98-9.83-8.9 3.78-2.07 8.4-2.63 12.94-0.93 1.96 0.73 3.73 1.83 5.26 3.19q-2.1-4.42-4.38-8.76c-3.35-1.71-6.31-4.4-8.4-7.97-2.54-4.34-3.36-9.18-2.64-13.68 4.42 1.08 8.61 4.09 11.27 8.62 2.18 3.73 2.95 7.85 2.47 11.61q4.12 7.83 7.64 15.91c-0.03-2.07 0.24-4.16 0.87-6.21 1.43-4.72 4.47-8.31 8.37-10.15 2.28 4.53 2.9 9.86 1.34 14.63-1.37 4.21-4.16 7.24-7.56 8.96q3.09 7.75 5.64 15.68c0.18-2.06 0.66-4.11 1.49-6.07 1.91-4.54 5.29-7.8 9.36-9.25 1.8 4.72 1.88 10.07-0.15 14.65-1.79 4.04-4.88 6.78-8.43 8.14q2.29 8 4.04 16.13c0.38-2.02 1.06-4.01 2.08-5.88 2.36-4.32 6.05-7.22 10.24-8.25 1.32 4.87 0.86 10.19-1.61 14.54-2.19 3.84-5.53 6.25-9.2 7.25q1.48 8.19 2.4 16.47c0.58-1.97 1.46-3.88 2.66-5.65 2.78-4.06 6.74-6.58 11.02-7.18 0.82 4.97-0.17 10.23-3.07 14.31-2.55 3.61-6.12 5.68-9.88 6.31 1.38 17.44 0.87 35.09-1.57 52.65q-1.51-0.21-3.02-0.42c2.77-19.89 3.01-39.9 0.84-59.57-3.81 0.09-7.67-1.21-10.94-3.81-3.71-2.97-5.97-7.03-6.73-11.34 4.22-0.85 8.8-0.03 12.62 2.92 1.66 1.27 3.02 2.83 4.08 4.58q-1.17-8.14-2.88-16.18c-3.78 0.47-7.76-0.43-11.27-2.69-3.98-2.58-6.64-6.39-7.83-10.61 4.12-1.26 8.75-0.9 12.85 1.64 1.78 1.1 3.29 2.52 4.52 4.15q-1.98-7.98-4.49-15.81c-3.71 0.85-7.76 0.35-11.48-1.55z"/>
			<g id="&lt;Group&gt;">
				<g id="&lt;Group&gt;">
					<path id="&lt;Path&gt;" class="s5" d="m592.74 244.02c16.06 22.58 26.57 46.64 31.34 69.18-19.72-11.91-39-29.73-55.06-52.31-16.06-22.58-26.56-46.63-31.34-69.18 19.73 11.92 39 29.73 55.06 52.31z"/>
					<path id="&lt;Path&gt;" class="s7" d="m537.68 191.71l86.4 121.49c-19.72-11.91-39-29.73-55.06-52.31-16.06-22.58-26.56-46.63-31.34-69.18z"/>
				</g>
				<g id="&lt;Group&gt;">
					<path id="&lt;Path&gt;" class="s5" d="m581.38 274.48c16.07 16.28 27.8 34.49 34.67 52.24-17.65-7.11-35.71-19.08-51.77-35.36-16.07-16.29-27.81-34.5-34.68-52.25 17.65 7.11 35.71 19.08 51.78 35.37z"/>
					<path id="&lt;Path&gt;" class="s7" d="m529.6 239.11l86.45 87.61c-17.65-7.11-35.71-19.08-51.77-35.36-16.07-16.29-27.81-34.5-34.68-52.25z"/>
				</g>
				<g id="&lt;Group&gt;">
					<path id="&lt;Path&gt;" class="s5" d="m604.9 218.73c10.53 25.63 15.31 51.44 14.85 74.48-16.51-16.07-31.25-37.79-41.77-63.42-10.53-25.64-15.3-51.44-14.85-74.48 16.52 16.07 31.25 37.79 41.77 63.42z"/>
					<path id="&lt;Path&gt;" class="s7" d="m563.13 155.31l56.62 137.9c-16.51-16.07-31.25-37.79-41.77-63.42-10.53-25.64-15.3-51.44-14.85-74.48z"/>
				</g>
				<g id="&lt;Group&gt;">
					<path id="&lt;Path&gt;" class="s5" d="m631.53 240.73c4.56 22.45 4.43 44.16 0.48 62.8-10.92-15.62-19.51-35.55-24.07-58.01-4.56-22.45-4.43-44.16-0.48-62.8 10.91 15.62 19.5 35.55 24.07 58.01z"/>
					<path id="&lt;Path&gt;" class="s7" d="m607.46 182.72l24.55 120.81c-10.92-15.62-19.51-35.55-24.07-58.01-4.56-22.45-4.43-44.16-0.48-62.8z"/>
				</g>
			</g>
			<path id="&lt;Path&gt;" class="s5" d="m208.6 323.67c-0.67-4.68-4.55-8.39-9.45-8.67-1.97-0.11-3.82 0.36-5.43 1.24-2.37-5.24-7.63-8.89-13.75-8.89-1.91 0-3.73 0.37-5.41 1.01-4.18-7.82-12.43-13.14-21.92-13.14-9.5 0-17.75 5.33-21.93 13.16-2.63-2.19-6.01-3.51-9.7-3.51-1.98 0-3.86 0.39-5.59 1.07-2.57-10.21-11.82-17.77-22.83-17.77-4.62 0-8.92 1.33-12.55 3.63-4.89-10.23-15.33-17.3-27.42-17.3-13.82 0-25.47 9.23-29.15 21.85-9.39 1.44-16.58 9.55-16.58 19.33 0 2.85 0.61 5.55 1.71 7.99z"/>
			<path id="&lt;Path&gt;" class="s5" d="m431.52 323.67c0.67-4.68 4.56-8.39 9.46-8.67 1.96-0.11 3.82 0.36 5.42 1.24 2.37-5.24 7.63-8.89 13.76-8.89 1.91 0 3.73 0.37 5.41 1.01 4.18-7.82 12.42-13.14 21.92-13.14 9.49 0 17.74 5.33 21.92 13.16 2.64-2.19 6.02-3.51 9.71-3.51 1.97 0 3.86 0.39 5.59 1.07 2.57-10.21 11.81-17.77 22.83-17.77 4.61 0 8.92 1.33 12.55 3.63 4.89-10.23 15.33-17.3 27.42-17.3 13.81 0 25.47 9.23 29.15 21.85 9.39 1.44 16.57 9.55 16.57 19.33 0 2.85-0.61 5.55-1.7 7.99z"/>
			<path id="&lt;Path&gt;" class="s4" d="m631.18 315.19l27.24-9.17q-0.33-1.05-0.7-2.09l-14.07 1.28 12.53-5.13c-2.62-5.95-6.21-11.38-10.56-16.09l-19.42 11.96 16.89-14.55q-0.89-0.85-1.82-1.66l-11.87 6.59 8.68-9.21c-5.96-4.55-12.81-7.97-20.25-9.97l-8.38 12.41 3-13.59q-1.26-0.21-2.55-0.37l-7.29 17.52 1.99-17.94q-0.99-0.03-1.99-0.03c-8.25 0-16.1 1.71-23.22 4.79-0.87 6.87-1.65 13.26-1.65 13.9 0 0.69-1.25-5.42-2.55-11.88q-0.96 0.51-1.9 1.05l1.25 21.4-5.36-18.78c-6.14 4.28-11.43 9.72-15.54 15.99l3.08 13.59-5.62-9.35q-1.76 3.26-3.1 6.74l11.22 12.59-12.93-7.48c-1.43 5.07-2.2 10.43-2.2 15.96h117.04c0-4.66-0.55-9.19-1.58-13.54z"/>
			<path id="&lt;Path&gt;" class="s4" d="m37.82 315.19l27.24-9.17q-0.33-1.05-0.71-2.09l-14.06 1.28 12.53-5.13c-2.63-5.95-6.21-11.38-10.56-16.09l-19.43 11.96 16.89-14.55q-0.89-0.85-1.81-1.66l-11.87 6.59 8.67-9.21c-5.95-4.55-12.8-7.97-20.24-9.97l-8.38 12.41 3-13.59q-1.27-0.21-2.55-0.37l-7.29 17.52 1.99-17.94q-0.99-0.03-1.99-0.03c-8.25 0-16.1 1.71-23.22 4.79-0.87 6.87-1.65 13.26-1.65 13.9 0 0.69-1.26-5.42-2.55-11.88q-0.96 0.51-1.91 1.05l1.25 21.4-5.35-18.78c-6.14 4.28-11.43 9.72-15.54 15.99l3.08 13.59-5.62-9.35q-1.76 3.26-3.11 6.74l11.23 12.59-12.93-7.48c-1.44 5.07-2.21 10.43-2.21 15.96h117.05c0-4.66-0.55-9.19-1.58-13.54z"/>
			<path id="&lt;Path&gt;" fill-rule="evenodd" class="s6" d="m642.05 323.67v99.24h-663.26v-99.24z"/>
			<path id="&lt;Path&gt;" class="s6" d="m387.61 326.19c-2.31-2.19-4.96-4.01-7.84-5.36 2.41 0.02 4.82 0.42 7.11 1.18q-2.09-2.51-4.18-5.03c2.44 0.93 4.76 2.17 6.89 3.67-1.02-2.68-2.49-5.19-4.32-7.39 3.16 1.22 5.93 3.41 7.85 6.2-0.13-2.78 0.32-5.59 1.31-8.19q0.69 3.25 1.38 6.51c1.04-1.89 2.61-3.48 4.48-4.55q-0.88 3.62-1.76 7.24c1.67-1.65 3.85-2.79 6.17-3.21q-1.67 2.83-3.33 5.67c2.2-1.15 4.74-1.64 7.21-1.37-3.03 1.57-5.69 3.82-7.74 6.54-4.46-0.76-8.78-1.16-13.23-1.91z"/>
			<g id="&lt;Group&gt;">
				<path id="&lt;Path&gt;" class="s8" d="m642.05 422.91v-63.64l-663.26 25.03v1.54h606.64l-267.31 37.07z"/>
				<path id="&lt;Path&gt;" class="s8" d="m-22.21 337.63l675.02 6.52-675.02 10.74v2.46l923.05 8.91v-33.68l-923.05 2.69z"/>
			</g>
			<path id="&lt;Path&gt;" class="s8" d="m69.29 382.24c-3.18-3.01-6.83-5.51-10.79-7.38 3.32 0.03 6.63 0.59 9.79 1.63q-2.88-3.46-5.75-6.93c3.35 1.29 6.54 2.99 9.48 5.06-1.4-3.69-3.42-7.15-5.95-10.18 4.35 1.68 8.17 4.7 10.81 8.54-0.18-3.83 0.45-7.7 1.81-11.28q0.95 4.48 1.89 8.96c1.44-2.59 3.6-4.79 6.17-6.26q-1.21 4.98-2.42 9.96c2.31-2.27 5.31-3.83 8.49-4.42q-2.29 3.91-4.58 7.82c3.02-1.59 6.53-2.26 9.93-1.89-4.17 2.16-7.84 5.26-10.67 9-6.13-1.04-12.07-1.59-18.21-2.63z"/>
			<path id="&lt;Path&gt;" class="s6" d="m87.17 326.22c-2.26-2.14-4.86-3.92-7.68-5.25 2.36 0.02 4.72 0.41 6.97 1.16q-2.05-2.47-4.1-4.94c2.39 0.92 4.67 2.13 6.76 3.6-1-2.63-2.44-5.09-4.24-7.25 3.1 1.2 5.82 3.35 7.7 6.09-0.12-2.73 0.32-5.48 1.29-8.04q0.67 3.2 1.35 6.39c1.02-1.85 2.56-3.42 4.39-4.47q-0.86 3.55-1.73 7.1c1.65-1.62 3.79-2.73 6.06-3.15q-1.64 2.79-3.27 5.57c2.16-1.13 4.65-1.61 7.07-1.35-2.96 1.54-5.58 3.75-7.59 6.42-4.37-0.74-8.61-1.13-12.98-1.88z"/>
			<path id="&lt;Path&gt;" class="s8" d="m553.4 326.67c-3.17-3.01-6.83-5.51-10.79-7.38 3.32 0.03 6.64 0.59 9.79 1.63q-2.88-3.46-5.75-6.92c3.35 1.28 6.54 2.98 9.48 5.05-1.4-3.69-3.42-7.15-5.95-10.18 4.35 1.68 8.17 4.7 10.81 8.54-0.17-3.83 0.45-7.69 1.81-11.28q0.95 4.48 1.9 8.97c1.43-2.6 3.59-4.8 6.17-6.27q-1.22 4.98-2.43 9.97c2.31-2.28 5.31-3.84 8.5-4.43q-2.3 3.91-4.59 7.82c3.03-1.59 6.53-2.26 9.93-1.89-4.16 2.16-7.84 5.26-10.66 9.01-6.14-1.05-12.08-1.6-18.22-2.64z"/>
			<path id="&lt;Path&gt;" class="s8" d="m315.57 376.91c-3.02-2.87-6.5-5.25-10.27-7.03 3.16 0.03 6.32 0.56 9.32 1.56q-2.74-3.3-5.47-6.6c3.19 1.23 6.23 2.84 9.02 4.81-1.33-3.51-3.25-6.8-5.66-9.69 4.14 1.6 7.78 4.47 10.29 8.13-0.16-3.64 0.43-7.32 1.73-10.74q0.9 4.27 1.8 8.54c1.36-2.48 3.42-4.56 5.87-5.97q-1.15 4.75-2.31 9.49c2.2-2.16 5.06-3.65 8.09-4.21q-2.18 3.72-4.37 7.44c2.89-1.51 6.22-2.15 9.46-1.8-3.97 2.06-7.46 5.01-10.15 8.58-5.85-1-11.5-1.52-17.35-2.51z"/>
			<path id="&lt;Path&gt;" class="s6" d="m480.54 360.03c-3.02-2.87-6.51-5.25-10.27-7.02 3.16 0.03 6.31 0.55 9.31 1.55q-2.73-3.3-5.47-6.6c3.19 1.23 6.23 2.85 9.03 4.81-1.34-3.51-3.26-6.8-5.67-9.69 4.14 1.6 7.78 4.48 10.29 8.14-0.16-3.65 0.43-7.33 1.73-10.74q0.9 4.26 1.8 8.53c1.37-2.47 3.42-4.56 5.88-5.97q-1.16 4.75-2.32 9.49c2.2-2.16 5.06-3.65 8.1-4.21q-2.19 3.72-4.37 7.44c2.88-1.51 6.22-2.15 9.45-1.79-3.96 2.05-7.46 5-10.15 8.57-5.84-0.99-11.5-1.52-17.34-2.51z"/>
			<path id="&lt;Path&gt;" class="s6" d="m441.13 390.7c-3.64-3.45-7.83-6.32-12.37-8.46 3.81 0.04 7.61 0.67 11.22 1.87q-3.3-3.97-6.59-7.94c3.84 1.48 7.5 3.43 10.86 5.79-1.6-4.23-3.91-8.19-6.81-11.66 4.98 1.92 9.36 5.38 12.38 9.79-0.19-4.39 0.52-8.82 2.08-12.93q1.09 5.14 2.17 10.27c1.64-2.97 4.12-5.49 7.07-7.18q-1.39 5.71-2.78 11.42c2.64-2.6 6.08-4.39 9.74-5.06q-2.63 4.47-5.26 8.95c3.47-1.82 7.48-2.59 11.38-2.16-4.78 2.47-8.98 6.02-12.22 10.32-7.03-1.2-13.84-1.83-20.87-3.02z"/>
			<path id="&lt;Path&gt;" class="s6" d="m365.85 359.88c-2.59-2.46-5.58-4.5-8.81-6.02 2.71 0.02 5.42 0.47 7.99 1.33q-2.34-2.83-4.69-5.65c2.73 1.05 5.34 2.43 7.74 4.12-1.15-3.01-2.79-5.83-4.86-8.31 3.55 1.37 6.67 3.84 8.82 6.97-0.14-3.12 0.37-6.28 1.48-9.2q0.78 3.66 1.55 7.31c1.17-2.12 2.93-3.91 5.03-5.11q-0.99 4.07-1.98 8.13c1.89-1.85 4.34-3.13 6.94-3.61q-1.87 3.19-3.75 6.38c2.47-1.3 5.33-1.84 8.11-1.54-3.4 1.76-6.4 4.29-8.7 7.35-5.01-0.85-9.86-1.3-14.87-2.15z"/>
			<path id="&lt;Path&gt;" class="s9" d="m155.9 162.21c-73.69 0-133.43-59.74-133.43-133.43v-69.21h266.86v69.21c0 73.69-59.74 133.43-133.43 133.43z"/>
			<path id="&lt;Path&gt;" class="s9" d="m390.17 117.46c-73.69 0-133.43-59.74-133.43-133.44v-69.2h266.87v69.2c0 73.7-59.74 133.44-133.44 133.44z"/>
			<path id="&lt;Path&gt;" class="s9" d="m27.54 144.25c-54.93 0-99.47-44.54-99.47-99.47v-51.6h198.95v51.6c0 54.93-44.54 99.47-99.48 99.47z"/>
			<path id="&lt;Path&gt;" class="s4" d="m214.57 428.93c-3.87-14.69-10.51-28.48-17.12-42.17 8.98 7.24 16.76 15.94 22.96 25.66-0.15-18.32-3.98-36.85-8.24-54.67 7.49 15.78 13.72 30.88 18.33 47.73 3.03-18.83 4.95-36.18 3.88-55.22 5.31 18.06 8.65 36.24 8.69 55.06 7.73-18.91 13.99-37.05 21.71-55.96-1.68 16.84-4.52 34.51-9.15 50.79 10.2-10.58 20.55-21.99 30.76-32.56-5.32 12.56-12.05 25.48-20.37 36.29 10.12-7.15 19.78-13.23 29.9-20.39-6.19 10-13.21 21.13-21.43 29.54 9.24-3.28 18.69-5.53 27.93-8.81-10.57 7.52-20.34 16.53-30.38 24.75-7.88 6.44-19.05 9.83-29.13 8.45-10.08-1.39-25.75 1.35-28.34-8.49z"/>
			<path id="&lt;Path&gt;" class="s5" d="m268.95 430.67c-1.08-7.53-7.35-13.51-15.23-13.95-3.16-0.18-6.15 0.57-8.74 1.99-3.81-8.44-12.28-14.32-22.14-14.32-3.07 0-6 0.6-8.71 1.64-6.73-12.6-20.01-21.17-35.29-21.17-15.29 0-28.57 8.58-35.31 21.19-4.23-3.52-9.68-5.64-15.62-5.64-3.18 0-6.22 0.61-9 1.72-4.14-16.44-19.03-28.62-36.75-28.62-7.44 0-14.37 2.15-20.22 5.85-7.87-16.47-24.68-27.85-44.15-27.85-22.24 0-41 14.85-46.93 35.17-15.11 2.32-26.69 15.38-26.69 31.13 0 4.58 0.99 8.93 2.75 12.86z"/>
			<path id="&lt;Path&gt;" class="s5" d="m431.16 418.25c1.08-7.54 7.34-13.51 15.23-13.96 3.15-0.17 6.14 0.58 8.73 1.99 3.81-8.43 12.28-14.31 22.14-14.31 3.07 0 6 0.59 8.71 1.63 6.73-12.59 20.01-21.16 35.29-21.16 15.29 0 28.58 8.58 35.31 21.19 4.23-3.52 9.68-5.64 15.62-5.64 3.18 0 6.22 0.61 9.01 1.72 4.14-16.45 19.02-28.62 36.75-28.62 7.43 0 14.36 2.15 20.21 5.85 7.87-16.47 24.68-27.85 44.15-27.85 22.24 0 41 14.85 46.93 35.17 15.12 2.32 26.69 15.37 26.69 31.13 0 4.58-0.99 8.93-2.74 12.86z"/>
		</g>
	</g>
	<g id="OBJECTS copy 2">
		<g id="&lt;Clip Group&gt;" clip-path="url(#cp2)">
			<path id="&lt;Path&gt;" class="s1" d="m1542.81 252.8c-3.75-2.53-5.51-5.6-5.41-8.64 5.26 0.02 10.56 1.21 14.46 3.75 1.68 1.09 2.96 2.34 3.81 3.67q0.52-5.68 0.34-11.39c-4.64-0.21-9.2-1.38-12.89-3.41-4.17-2.31-6.47-5.28-6.91-8.33 5.23-0.29 10.71 0.61 15.04 2.92 1.87 1 3.35 2.18 4.44 3.46q-0.3-3.38-0.84-6.76c-2.98-2-5.05-4.51-5.74-7.35-0.84-3.45 0.51-6.76 3.43-9.43 4.48 1.89 7.8 4.94 8.67 8.55 0.72 2.96-0.34 5.79-2.64 8.06q0.97 6.1 1.16 12.19 1.4-2 3.89-3.71c3.83-2.61 8.94-4.08 14.21-4.19 0.45 3.5-1.35 7.06-5.34 9.67-3.52 2.31-8.1 3.48-12.74 3.65q-0.14 5.77-0.98 11.51 1.74-1.9 4.52-3.46c4.28-2.37 9.63-3.52 14.9-3.34-0.18 3.49-2.6 6.92-7.03 9.28-3.92 2.08-8.68 2.99-13.33 2.89q-1.16 5.72-3.01 11.37 2.07-1.79 5.11-3.18c4.68-2.11 10.21-2.95 15.43-2.47-0.79 3.45-3.81 6.72-8.64 8.81-4.27 1.85-9.18 2.48-13.79 2.12q-2.17 5.61-5.01 11.13 2.38-1.66 5.66-2.87c5.03-1.83 10.69-2.36 15.8-1.59-1.4 3.39-4.98 6.47-10.17 8.28-4.58 1.61-9.58 1.96-14.11 1.34-6.63 11.47-15.47 22.57-26.45 33.08q-1.61-0.54-3.22-1.08c12.45-11.92 22.1-24.58 28.87-37.69-4.34-0.98-8.09-2.85-10.56-5.4-2.8-2.89-3.44-6.09-2.28-9.04 5.16 0.61 9.94 2.37 12.88 5.28 1.27 1.26 2.08 2.63 2.45 4.02q2.51-5.49 4.34-11.07c-4.49-0.73-8.55-2.38-11.46-4.77-3.29-2.72-4.5-5.87-3.86-8.87 5.24 0.31 10.3 1.8 13.73 4.53 1.49 1.18 2.54 2.49 3.15 3.86q1.52-5.61 2.35-11.28c-4.59-0.47-8.92-1.88-12.23-4.1z"/>
			<g id="&lt;Group&gt;">
				<g id="&lt;Group&gt;">
					<path id="&lt;Path&gt;" fill-rule="evenodd" class="s1" d="m1727.04-66.39v478.31l-55.01-0.29v-478.31z"/>
				</g>
				<g id="&lt;Group&gt;">
					<path id="&lt;Path&gt;" class="s1" d="m1672.03 214.95c-35.74-0.18-64.82-16.79-64.82-37.02v-244.95l29.94 0.16v244.94c0 10.89 15.65 19.83 34.88 19.93z"/>
				</g>
			</g>
			<path id="&lt;Path&gt;" class="s9" d="m1633.24 143.53c-107.61-0.56-194.85-50.39-194.85-111.3v-57.2l389.7 2.04v57.2c0 60.91-87.24 109.83-194.85 109.26z"/>
			<path id="&lt;Path&gt;" class="s3" d="m888.24 191.47c-33.26-0.18-60.33-15.64-60.33-34.47v-189.28l20.96 0.11v189.28c0 12.29 17.66 22.38 39.37 22.49zm22.68-63.77v-11.86c21.71 0.12 39.37-9.79 39.37-22.08v-189.28l20.95 0.11v189.28c0 18.83-27.06 34.01-60.32 33.83zm7.44-166.64v374.86l-40.64-0.22v-374.85z"/>
			<path id="&lt;Path&gt;" class="s3" d="m1306.17 176.28c33.26 0.18 60.33-15 60.33-33.83v-189.28l-20.96-0.11v189.28c0 12.29-17.66 22.19-39.37 22.08zm-22.67-64.01v-11.86c-21.71-0.11-39.38-10.2-39.38-22.49v-189.28l-20.95-0.11v189.28c0 18.83 27.06 34.29 60.33 34.46zm33.19-166.51v374.86l-40.64-0.21v-374.86zm-247.79 323.25c-33.26-0.17-60.33-15.63-60.33-34.46v-288.85l20.96 0.11v288.85c0 12.29 17.66 22.38 39.37 22.49zm22.68-79.69v-11.86c21.71 0.11 39.37-9.79 39.37-22.08v-189.28l20.96 0.11v189.28c0 18.83-27.07 34-60.33 33.83zm7.44-251.53v437.92l-40.64-0.21v-437.93z"/>
			<path id="&lt;Path&gt;" class="s1" d="m1152.87 326.37c-2.35-9.27-15.94-16.69-33.08-17.32-6.86-0.25-13.35 0.64-18.96 2.35-8.29-10.41-26.68-17.74-48.09-17.85-6.68-0.03-13.04 0.66-18.91 1.91-14.63-15.56-43.46-26.25-76.65-26.42-33.21-0.17-62.06 10.23-76.68 25.65-9.2-4.38-21.02-7.04-33.92-7.11-6.91-0.04-13.51 0.68-19.56 2.01-9-20.26-41.31-35.39-79.82-35.59-16.15-0.09-31.19 2.47-43.9 6.96-17.09-20.34-53.6-34.52-95.88-34.74-48.3-0.25-89.04 17.79-101.93 42.7-32.82 2.68-57.96 18.59-57.96 37.97 0 5.63 2.14 10.98 5.96 15.83z"/>
			<path id="&lt;Path&gt;" class="s1" d="m1356.58 264.32c-7.15-3.16-11.59-7.53-13.18-12.19 8.01-0.95 16.76-0.09 24.14 3.06 3.19 1.36 5.84 3.03 7.91 4.91q-2.48-8.78-6.03-17.46c-7.18 0.54-14.78-0.41-21.55-2.83-7.68-2.76-12.88-6.88-15.3-11.45 7.79-1.41 16.64-1.04 24.55 1.69 3.42 1.18 6.36 2.71 8.75 4.47q-2.4-5.11-5.16-10.18c-5.69-2.5-10.28-5.96-12.96-10.17-3.25-5.11-3.09-10.41-0.18-15.02 7.89 2.06 14.7 6.11 18.09 11.45 2.8 4.4 2.81 8.92 0.6 12.8q4.98 9.14 8.78 18.41c0.65-2.19 1.89-4.35 3.77-6.39 4.33-4.69 11.27-7.86 19.21-9.01 2.7 5.26 2 11.04-2.57 15.76-4.03 4.17-10.32 6.8-17.28 7.91q3.09 8.84 5.11 17.76c1.04-2.14 2.66-4.2 4.89-6.11 5.16-4.41 12.63-7.16 20.75-7.85 1.73 5.36 0.01 11.04-5.38 15.46-4.75 3.91-11.49 6.17-18.61 6.88q1.51 8.94 1.94 17.91c1.42-2.07 3.39-4.03 5.96-5.8 5.91-4.08 13.84-6.38 22.04-6.61 0.78 5.42-1.93 10.96-8.09 15.05-5.42 3.61-12.53 5.47-19.75 5.77q-0.07 8.97-1.24 17.93c1.79-1.98 4.1-3.81 6.96-5.43 6.61-3.73 14.92-5.57 23.13-5.33-0.18 5.44-3.87 10.8-10.72 14.52-6.04 3.29-13.45 4.74-20.69 4.63-3.5 18.73-10.58 37.3-21.27 55.39q-2.75-0.54-5.51-1.07c12.1-20.48 19.52-41.6 22.3-62.87-7.17-0.69-13.95-2.86-19.17-6.29-5.91-3.9-8.72-8.67-8.65-13.39 8.2-0.03 16.49 1.79 22.62 5.7 2.66 1.69 4.67 3.62 6.04 5.68q0.65-8.85 0.24-17.71c-7.25-0.28-14.37-2.05-20.17-5.18-6.56-3.54-10.2-8.13-10.97-12.84 8.15-0.48 16.71 0.86 23.5 4.4 2.94 1.53 5.28 3.34 7.01 5.32q-0.92-8.85-2.9-17.66c-7.25 0.13-14.65-1.23-20.96-4.02z"/>
			<path id="&lt;Path&gt;" class="s1" d="m1188.73 326.56c2.53-9.96 17.19-17.81 35.66-18.3 7.39-0.19 14.39 0.84 20.44 2.74 8.93-11.13 28.76-18.81 51.84-18.69 7.19 0.04 14.05 0.86 20.38 2.27 15.77-16.61 46.85-27.8 82.63-27.61 35.79 0.18 66.89 11.72 82.65 28.51 9.92-4.62 22.66-7.36 36.57-7.29 7.45 0.04 14.56 0.89 21.08 2.39 9.7-21.73 44.53-37.68 86.04-37.47 17.4 0.1 33.63 3.03 47.33 8 18.41-21.73 57.77-36.6 103.35-36.36 52.06 0.27 95.98 20.18 109.87 47.18 35.38 3.25 62.47 20.69 62.47 41.58 0 6.06-2.3 11.81-6.42 16.99z"/>
			<path id="&lt;Path&gt;" class="s4" d="m1358.43 327.45c-0.79-3.11-5.35-5.6-11.1-5.81-2.3-0.09-4.48 0.21-6.37 0.78-2.78-3.49-8.95-5.95-16.14-5.99-2.23-0.01-4.37 0.23-6.34 0.65-4.91-5.23-14.58-8.81-25.72-8.87-11.15-0.06-20.83 3.43-25.73 8.61-3.09-1.47-7.06-2.37-11.39-2.39-2.32-0.01-4.53 0.23-6.56 0.68-3.02-6.8-13.86-11.88-26.78-11.95-5.42-0.03-10.47 0.83-14.74 2.34-5.73-6.83-17.98-11.59-32.17-11.66-16.21-0.09-29.88 5.97-34.21 14.33-11.01 0.9-19.45 6.24-19.45 12.74 0 1.89 0.72 3.69 2 5.31z"/>
			<path id="&lt;Path&gt;" class="s4" d="m1122.9 272.63c6.35-0.86 11.52-2.99 14.96-5.8-4.81-1.99-11.03-2.92-17.52-2.11-2.8 0.36-5.42 1.01-7.74 1.9q6.13-5.38 12.93-10.51c4.47 1.58 9.97 2.26 15.69 1.81 6.49-0.51 12.03-2.34 15.98-4.94-4.43-2.26-10.47-3.54-17.09-3.08-2.87 0.19-5.59 0.7-8.07 1.45q4.2-2.97 8.62-5.84c5.04-0.68 9.85-2.18 13.77-4.51 4.77-2.82 7.38-6.35 7.82-9.89-6.27 0.01-12.84 1.52-17.83 4.47-4.1 2.43-6.42 5.41-6.95 8.36q-7.97 5.18-15.23 10.66c0.69-1.56 0.98-3.2 0.78-4.87-0.46-3.84-3.41-7.12-8.08-9.24-4.47 3.02-6.97 6.95-6.37 10.85 0.53 3.45 3.33 6.27 7.36 8.19q-6.57 5.31-12.47 10.86c0.4-1.59 0.39-3.23-0.1-4.88-1.15-3.79-4.68-6.88-9.69-8.73-3.9 3.25-5.67 7.3-4.37 11.14 1.14 3.39 4.43 6.04 8.78 7.72q-5.58 5.65-10.46 11.51c0.12-1.61-0.18-3.24-0.97-4.85-1.81-3.71-5.87-6.59-11.18-8.14-3.29 3.45-4.34 7.57-2.36 11.33 1.73 3.31 5.47 5.76 10.09 7.19q-4.55 5.94-8.37 12.06c-0.16-1.61-0.75-3.22-1.82-4.78-2.45-3.59-7-6.23-12.55-7.48-2.66 3.62-2.97 7.8-0.35 11.43 2.31 3.21 6.46 5.43 11.3 6.6-7.28 12.98-12.12 26.46-14.33 40.24q2.1 0.11 4.19 0.23c2.5-15.6 8.42-30.82 17.48-45.35 5.09 0.77 10.68 0.49 15.89-0.88 5.9-1.57 10.21-4.24 12.58-7.37-5.41-1.42-11.82-1.64-17.87-0.11-2.62 0.67-4.95 1.6-6.91 2.73q4.11-5.96 8.92-11.74c4.93 1.05 10.55 1.09 15.98 0.02 6.15-1.22 10.91-3.62 13.83-6.6-5.14-1.72-11.48-2.3-17.78-1.12-2.73 0.51-5.21 1.3-7.36 2.32q5.14-5.69 10.96-11.17c4.73 1.32 10.31 1.68 15.91 0.92z"/>
			<path id="&lt;Path&gt;" class="s5" d="m1152.98 319.1l41.29-7.65q-0.5-0.91-1.07-1.8l-21.32 0.99 18.99-4.31c-3.97-5.12-9.41-9.8-16-13.88l-29.45 10.1 25.61-12.34q-1.36-0.74-2.76-1.45l-17.99 5.56 13.15-7.83c-9.03-3.95-19.41-6.94-30.69-8.71l-12.7 10.58 4.54-11.63q-1.91-0.2-3.86-0.35l-11.05 14.98 3.01-15.38q-1.5-0.03-3.01-0.04c-12.51-0.07-24.41 1.34-35.2 3.92-1.32 5.9-2.5 11.37-2.5 11.92 0 0.59-1.91-4.66-3.87-10.22q-1.46 0.43-2.88 0.89l1.89 18.37-8.12-16.15c-9.31 3.62-17.32 8.24-23.55 13.59l4.67 11.69-8.52-8.07q-2.67 2.78-4.71 5.76l17.01 10.89-19.6-6.52c-2.17 4.34-3.34 8.93-3.34 13.67l177.43 0.93c0-4-0.83-7.89-2.39-11.62z"/>
			<path id="&lt;Path&gt;" class="s4" d="m1010.95 286.38c5.04-0.69 9.15-2.38 11.88-4.61-3.82-1.58-8.76-2.32-13.91-1.67-2.23 0.28-4.31 0.8-6.16 1.5q4.88-4.27 10.27-8.35c3.55 1.26 7.93 1.8 12.47 1.45 5.15-0.41 9.55-1.87 12.69-3.93-3.52-1.8-8.32-2.81-13.58-2.45-2.27 0.15-4.44 0.56-6.41 1.15q3.34-2.35 6.85-4.64c4.01-0.54 7.82-1.73 10.94-3.57 3.79-2.25 5.86-5.05 6.21-7.86-4.98 0-10.2 1.21-14.16 3.55-3.25 1.93-5.1 4.3-5.52 6.63q-6.33 4.12-12.1 8.48c0.55-1.25 0.78-2.55 0.62-3.87-0.36-3.05-2.71-5.66-6.41-7.34-3.56 2.4-5.54 5.52-5.07 8.62 0.42 2.74 2.65 4.97 5.85 6.5q-5.22 4.22-9.9 8.63c0.32-1.27 0.31-2.57-0.09-3.88-0.91-3.01-3.71-5.47-7.69-6.93-3.1 2.58-4.5 5.79-3.47 8.84 0.9 2.7 3.52 4.8 6.97 6.14q-4.43 4.49-8.31 9.14c0.1-1.28-0.14-2.58-0.77-3.85-1.44-2.95-4.66-5.24-8.88-6.47-2.61 2.74-3.44 6.02-1.87 9 1.37 2.63 4.34 4.57 8.01 5.71q-3.61 4.72-6.64 9.58c-0.13-1.28-0.6-2.56-1.45-3.8-1.95-2.85-5.56-4.95-9.97-5.93-2.11 2.87-2.36 6.19-0.28 9.07 1.84 2.55 5.13 4.32 8.98 5.24-5.79 10.31-9.63 21.02-11.38 31.96q1.66 0.1 3.33 0.19c1.98-12.39 6.68-24.49 13.88-36.02 4.04 0.61 8.48 0.39 12.62-0.7 4.69-1.25 8.11-3.37 9.99-5.86-4.3-1.12-9.38-1.3-14.19-0.08-2.08 0.53-3.93 1.27-5.49 2.17q3.26-4.74 7.09-9.33c3.91 0.83 8.38 0.87 12.69 0.02 4.88-0.97 8.66-2.88 10.98-5.25-4.08-1.36-9.12-1.82-14.12-0.89-2.17 0.41-4.14 1.04-5.85 1.84q4.09-4.52 8.71-8.87c3.75 1.05 8.19 1.34 12.64 0.74z"/>
			<path id="&lt;Path&gt;" class="s4" d="m1277.68 286.1c-6.35-0.93-11.52-3.11-14.96-5.96 4.81-1.94 11.02-2.81 17.52-1.92 2.8 0.38 5.41 1.06 7.74 1.97q-6.14-5.44-12.93-10.64c-4.47 1.53-9.97 2.15-15.69 1.65-6.49-0.58-12.03-2.47-15.98-5.12 4.43-2.21 10.47-3.42 17.09-2.9 2.87 0.23 5.59 0.76 8.07 1.54q-4.2-3.01-8.62-5.93c-5.04-0.73-9.85-2.28-13.78-4.65-4.76-2.87-7.37-6.43-7.81-9.97 6.27 0.07 12.84 1.65 17.83 4.65 4.09 2.47 6.42 5.48 6.94 8.43q7.98 5.27 15.24 10.82c-0.69-1.56-0.98-3.2-0.78-4.87 0.45-3.84 3.41-7.09 8.08-9.16 4.47 3.07 6.97 7.03 6.37 10.92-0.53 3.44-3.33 6.23-7.36 8.11q6.57 5.38 12.47 10.99c-0.4-1.59-0.39-3.24 0.1-4.87 1.15-3.79 4.68-6.84 9.69-8.64 3.9 3.29 5.67 7.36 4.37 11.19-1.14 3.38-4.43 5.99-8.78 7.63q5.58 5.71 10.46 11.61c-0.12-1.6 0.18-3.23 0.97-4.83 1.81-3.69 5.87-6.53 11.18-8.03 3.29 3.48 4.34 7.62 2.36 11.35-1.73 3.3-5.47 5.71-10.09 7.09q4.55 5.99 8.37 12.15c0.16-1.61 0.75-3.21 1.81-4.76 2.46-3.57 7.01-6.16 12.56-7.35 2.66 3.65 2.97 7.83 0.35 11.43-2.31 3.19-6.46 5.37-11.3 6.48 7.28 13.06 12.12 26.59 14.32 40.39q-2.09 0.1-4.19 0.19c-2.49-15.62-8.41-30.91-17.47-45.53-5.09 0.71-10.68 0.38-15.89-1.05-5.9-1.63-10.21-4.34-12.58-7.5 5.41-1.36 11.81-1.51 17.87 0.08 2.62 0.69 4.94 1.65 6.91 2.8q-4.11-6-8.92-11.84c-4.94 1-10.55 0.99-15.98-0.14-6.16-1.28-10.91-3.74-13.83-6.75 5.14-1.66 11.48-2.17 17.78-0.93 2.73 0.54 5.2 1.36 7.36 2.39q-5.14-5.74-10.96-11.28c-4.73 1.27-10.32 1.58-15.91 0.76z"/>
			<path id="&lt;Path&gt;" class="s4" d="m1492.07 288.9c-5.04-0.75-9.15-2.48-11.88-4.74 3.82-1.54 8.76-2.23 13.91-1.53 2.23 0.31 4.3 0.85 6.15 1.57q-4.87-4.32-10.27-8.45c-3.55 1.22-7.92 1.71-12.46 1.31-5.16-0.46-9.56-1.96-12.69-4.06 3.52-1.76 8.31-2.72 13.57-2.31 2.28 0.18 4.44 0.6 6.41 1.22q-3.33-2.39-6.84-4.71c-4.01-0.58-7.83-1.81-10.95-3.69-3.78-2.28-5.86-5.11-6.2-7.92 4.98 0.05 10.2 1.31 14.15 3.7 3.26 1.96 5.11 4.35 5.52 6.69q6.34 4.18 12.1 8.6c-0.54-1.25-0.77-2.55-0.62-3.87 0.37-3.05 2.72-5.64 6.42-7.28 3.56 2.44 5.54 5.58 5.06 8.67-0.42 2.74-2.64 4.95-5.85 6.45q5.22 4.27 9.91 8.73c-0.32-1.27-0.31-2.58 0.08-3.88 0.91-3 3.72-5.43 7.7-6.85 3.09 2.61 4.5 5.84 3.47 8.88-0.91 2.69-3.52 4.76-6.97 6.06q4.43 4.54 8.3 9.23c-0.09-1.28 0.15-2.58 0.77-3.85 1.44-2.93 4.67-5.18 8.88-6.37 2.62 2.77 3.45 6.05 1.88 9.02-1.38 2.62-4.35 4.53-8.02 5.63q3.61 4.75 6.65 9.64c0.13-1.27 0.6-2.55 1.44-3.78 1.95-2.83 5.56-4.89 9.97-5.83 2.12 2.9 2.37 6.22 0.28 9.08-1.83 2.53-5.12 4.26-8.97 5.15 5.78 10.36 9.63 21.11 11.38 32.07q-1.67 0.08-3.33 0.16c-1.98-12.42-6.68-24.56-13.88-36.17-4.04 0.57-8.49 0.3-12.62-0.83-4.69-1.3-8.11-3.45-9.99-5.96 4.29-1.08 9.38-1.2 14.19 0.07 2.08 0.54 3.93 1.3 5.48 2.22q-3.26-4.77-7.08-9.4c-3.92 0.79-8.38 0.78-12.69-0.12-4.89-1.02-8.67-2.97-10.98-5.36 4.08-1.32 9.11-1.73 14.12-0.74 2.16 0.43 4.13 1.08 5.84 1.9q-4.08-4.56-8.7-8.96c-3.76 1.01-8.2 1.26-12.64 0.61z"/>
			<path id="&lt;Path&gt;" class="s4" d="m1028.83 320.99l26.87-4.98q-0.33-0.59-0.69-1.17l-13.88 0.64 12.36-2.8c-2.59-3.33-6.12-6.38-10.41-9.04l-19.17 6.58 16.66-8.04q-0.88-0.48-1.79-0.94l-11.71 3.62 8.56-5.09c-5.88-2.57-12.64-4.52-19.98-5.68l-8.27 6.89 2.96-7.57q-1.24-0.13-2.51-0.22l-7.2 9.75 1.97-10.01q-0.98-0.03-1.97-0.03c-8.14-0.05-15.88 0.87-22.91 2.55-0.85 3.84-1.62 7.4-1.62 7.76 0 0.38-1.24-3.03-2.52-6.65q-0.95 0.28-1.88 0.58l1.23 11.95-5.28-10.51c-6.06 2.36-11.27 5.37-15.33 8.85l3.04 7.6-5.55-5.25q-1.73 1.81-3.06 3.75l11.07 7.09-12.76-4.24c-1.41 2.82-2.17 5.81-2.17 8.9l115.49 0.6c0-2.6-0.54-5.14-1.56-7.57z"/>
			<path id="&lt;Path&gt;" class="s5" d="m1355.9 322.7l26.88-4.98q-0.33-0.59-0.7-1.17l-13.88 0.64 12.36-2.8c-2.58-3.33-6.12-6.38-10.41-9.04l-19.17 6.58 16.67-8.04q-0.88-0.48-1.8-0.94l-11.71 3.62 8.56-5.09c-5.87-2.57-12.63-4.52-19.97-5.68l-8.27 6.89 2.96-7.57q-1.25-0.13-2.52-0.22l-7.19 9.75 1.96-10.01q-0.98-0.03-1.96-0.03c-8.14-0.05-15.89 0.87-22.91 2.55-0.86 3.84-1.63 7.4-1.63 7.76 0 0.38-1.24-3.03-2.52-6.65q-0.95 0.28-1.87 0.58l1.23 11.95-5.28-10.51c-6.07 2.36-11.28 5.37-15.34 8.85l3.04 7.6-5.54-5.25q-1.74 1.81-3.07 3.75l11.07 7.09-12.75-4.24c-1.42 2.82-2.18 5.81-2.18 8.9l115.49 0.6c0-2.6-0.54-5.14-1.56-7.57z"/>
			<path id="&lt;Path&gt;" class="s4" d="m1445.8 321.4l36.93-6.85q-0.45-0.8-0.95-1.6l-19.07 0.88 16.98-3.85c-3.56-4.58-8.41-8.77-14.31-12.42l-26.34 9.04 22.9-11.04q-1.21-0.66-2.46-1.3l-16.09 4.98 11.76-7.01c-8.08-3.53-17.37-6.21-27.45-7.79l-11.37 9.46 4.07-10.4q-1.71-0.18-3.45-0.31l-9.89 13.4 2.7-13.76q-1.35-0.03-2.7-0.04c-11.19-0.06-21.83 1.2-31.49 3.51-1.17 5.28-2.23 10.17-2.23 10.66 0 0.53-1.7-4.16-3.46-9.13q-1.31 0.38-2.58 0.79l1.69 16.43-7.26-14.45c-8.33 3.25-15.49 7.38-21.07 12.16l4.18 10.45-7.62-7.21q-2.39 2.48-4.21 5.15l15.21 9.74-17.53-5.83c-1.94 3.88-2.98 7.98-2.98 12.23l158.7 0.83c0-3.58-0.75-7.06-2.14-10.4z"/>
			<path id="&lt;Path&gt;" class="s6" d="m636.61 209.98c8.13-1.11 14.76-3.84 19.16-7.43-6.16-2.56-14.12-3.75-22.44-2.71-3.59 0.46-6.94 1.29-9.92 2.43q7.86-6.89 16.56-13.46c5.73 2.03 12.78 2.89 20.11 2.32 8.31-0.65 15.41-3 20.47-6.33-5.68-2.9-13.42-4.53-21.9-3.95-3.67 0.25-7.16 0.9-10.34 1.86q5.38-3.8 11.05-7.48c6.46-0.87 12.61-2.79 17.64-5.77 6.11-3.62 9.45-8.13 10.01-12.67-8.03 0.01-16.45 1.94-22.83 5.73-5.25 3.1-8.23 6.92-8.9 10.69q-10.22 6.65-19.51 13.67c0.88-2 1.25-4.1 0.99-6.24-0.58-4.92-4.37-9.12-10.34-11.84-5.74 3.87-8.94 8.91-8.17 13.91 0.68 4.41 4.27 8.02 9.43 10.48q-8.42 6.81-15.97 13.91c0.51-2.03 0.5-4.14-0.14-6.24-1.47-4.86-5.99-8.83-12.41-11.19-4.99 4.16-7.26 9.34-5.59 14.27 1.46 4.35 5.67 7.73 11.24 9.89q-7.15 7.24-13.4 14.74c0.16-2.06-0.23-4.15-1.24-6.21-2.32-4.75-7.52-8.44-14.32-10.43-4.22 4.42-5.56 9.7-3.03 14.51 2.22 4.25 7.01 7.38 12.93 9.22q-5.82 7.61-10.72 15.44c-0.21-2.06-0.96-4.12-2.33-6.12-3.14-4.6-8.96-7.98-16.07-9.58-3.42 4.64-3.81 9.99-0.46 14.64 2.96 4.11 8.27 6.96 14.48 8.45-9.33 16.63-15.53 33.9-18.35 51.55q2.68 0.15 5.37 0.3c3.19-19.98 10.77-39.49 22.38-58.09 6.52 0.98 13.69 0.63 20.35-1.14 7.57-2 13.08-5.42 16.12-9.43-6.93-1.82-15.13-2.1-22.89-0.14-3.36 0.85-6.33 2.05-8.85 3.49q5.26-7.63 11.43-15.04c6.32 1.35 13.51 1.41 20.46 0.03 7.89-1.56 13.98-4.64 17.72-8.46-6.58-2.2-14.7-2.94-22.78-1.43-3.49 0.65-6.66 1.67-9.42 2.97q6.58-7.29 14.04-14.31c6.05 1.69 13.21 2.16 20.38 1.19z"/>
			<path id="&lt;Path&gt;" class="s1" d="m807.25 255.06c8.77-1.19 15.91-4.13 20.66-8.01-6.64-2.76-15.23-4.04-24.19-2.91-3.88 0.49-7.49 1.39-10.7 2.61q8.47-7.42 17.85-14.51c6.18 2.19 13.78 3.12 21.68 2.51 8.96-0.71 16.61-3.24 22.07-6.84-6.13-3.12-14.46-4.88-23.61-4.25-3.96 0.27-7.72 0.97-11.14 2.01q5.8-4.1 11.9-8.07c6.96-0.94 13.6-3.01 19.03-6.22 6.58-3.9 10.18-8.77 10.79-13.67-8.66 0.02-17.74 2.1-24.62 6.18-5.66 3.35-8.87 7.47-9.6 11.54q-11.01 7.16-21.03 14.73c0.95-2.16 1.35-4.42 1.07-6.72-0.63-5.31-4.71-9.84-11.15-12.77-6.19 4.17-9.64 9.6-8.8 14.99 0.72 4.76 4.6 8.65 10.16 11.31q-9.07 7.33-17.22 15c0.55-2.2 0.54-4.47-0.14-6.74-1.59-5.24-6.46-9.51-13.38-12.06-5.38 4.48-7.83 10.07-6.04 15.38 1.57 4.69 6.12 8.34 12.12 10.67q-7.7 7.8-14.44 15.89c0.16-2.22-0.25-4.48-1.34-6.7-2.5-5.12-8.11-9.1-15.44-11.24-4.55 4.76-5.99 10.46-3.26 15.64 2.39 4.58 7.56 7.96 13.94 9.94q-6.28 8.2-11.56 16.65c-0.23-2.22-1.04-4.45-2.51-6.6-3.39-4.96-9.67-8.6-17.33-10.32-3.68 5-4.11 10.76-0.49 15.77 3.19 4.43 8.91 7.51 15.61 9.12-10.06 17.92-16.74 36.55-19.79 55.57q2.89 0.16 5.79 0.33c3.45-21.55 11.62-42.58 24.13-62.64 7.03 1.06 14.75 0.68 21.94-1.22 8.16-2.16 14.1-5.85 17.38-10.17-7.47-1.96-16.32-2.26-24.68-0.15-3.62 0.92-6.83 2.21-9.54 3.77q5.67-8.24 12.32-16.22c6.81 1.45 14.57 1.51 22.06 0.04 8.51-1.69 15.07-5.01 19.1-9.13-7.09-2.37-15.85-3.17-24.55-1.54-3.77 0.7-7.19 1.8-10.16 3.2q7.1-7.86 15.14-15.43c6.52 1.83 14.24 2.33 21.97 1.28z"/>
			<path id="&lt;Path&gt;" class="s1" d="m969.58 246.58c6.06-2.22 10.07-5.52 11.84-9.17-6.29-1.11-13.37-0.8-19.6 1.4-2.7 0.95-5 2.18-6.85 3.59q2.93-6.9 6.69-13.69c5.68 0.74 11.85 0.31 17.52-1.34 6.43-1.87 11.02-4.94 13.45-8.49-6.08-1.45-13.19-1.54-19.79 0.31-2.86 0.79-5.37 1.89-7.47 3.19q2.46-3.98 5.21-7.91c4.82-1.75 8.85-4.32 11.45-7.56 3.14-3.95 3.58-8.19 1.75-11.99-6.52 1.3-12.39 4.25-15.68 8.37-2.7 3.39-3.2 7-1.85 10.19q-4.96 7.09-8.98 14.33c-0.29-1.78-1.05-3.56-2.33-5.26-2.96-3.94-8.15-6.77-14.38-8.02-2.71 4.09-2.78 8.73 0.37 12.69 2.77 3.5 7.51 5.88 12.94 7.06q-3.41 6.93-5.98 13.96c-0.61-1.75-1.68-3.47-3.25-5.09-3.65-3.74-9.32-6.25-15.73-7.15-1.96 4.21-1.2 8.82 2.64 12.58 3.37 3.32 8.51 5.41 14.12 6.28q-2.17 7.08-3.47 14.22c-0.92-1.71-2.28-3.36-4.14-4.88-4.28-3.51-10.36-5.69-16.89-6.22-1.21 4.29 0.37 8.83 4.84 12.36 3.94 3.11 9.42 4.91 15.15 5.45q-0.9 7.17-0.94 14.37c-1.21-1.65-2.86-3.22-4.97-4.63-4.88-3.26-11.31-5.08-17.89-5.24-0.44 4.34 1.92 8.78 7 12.05 4.47 2.88 10.23 4.36 16.02 4.58 0.79 15.11 4.45 30.24 11.03 45.14q2.26-0.31 4.52-0.62c-7.46-16.87-11.12-34.05-11.05-51.15 5.79-0.25 11.44-1.69 15.98-4.21 5.14-2.86 7.9-6.55 8.35-10.32-6.55-0.37-13.36 0.72-18.68 3.58-2.3 1.23-4.12 2.69-5.43 4.28q0.43-7.09 1.71-14.15c5.82 0.08 11.7-1.03 16.66-3.27 5.62-2.55 9.02-6.06 10.14-9.79-6.46-0.74-13.43-0.03-19.24 2.51-2.51 1.09-4.58 2.44-6.17 3.95q1.69-7.03 4.22-13.98c5.77 0.41 11.83-0.36 17.16-2.31z"/>
			<path id="&lt;Path&gt;" class="s1" d="m1206 298.78c-6.45-1.9-11.07-4.98-13.54-8.52 6.05-1.42 13.16-1.47 19.78 0.4 2.86 0.8 5.39 1.9 7.5 3.21q-4.24-6.72-9.28-13.27c-5.51 1.02-11.73 0.91-17.69-0.44-6.76-1.54-11.91-4.36-15.01-7.76 5.76-1.76 12.82-2.21 19.75-0.71 2.99 0.65 5.7 1.6 8.04 2.79q-3.21-3.83-6.7-7.6c-5.13-1.5-9.64-3.85-12.84-6.94-3.89-3.77-5.14-7.96-4.05-11.84 6.74 0.96 13.15 3.59 17.21 7.53 3.34 3.23 4.53 6.8 3.8 10.05q6.29 6.79 11.69 13.79c-0.06-1.78 0.36-3.59 1.3-5.35 2.19-4.07 6.82-7.15 12.77-8.72 3.49 3.93 4.44 8.55 2.07 12.65-2.08 3.63-6.34 6.24-11.53 7.69q4.74 6.72 8.64 13.59c0.27-1.78 1-3.54 2.26-5.24 2.91-3.9 8.07-6.69 14.27-7.91 2.76 4.08 2.89 8.71-0.2 12.65-2.72 3.47-7.43 5.82-12.85 6.97q3.51 6.93 6.18 13.97c0.58-1.74 1.63-3.46 3.18-5.07 3.59-3.71 9.22-6.19 15.62-7.05 2.02 4.21 1.33 8.81-2.45 12.55-3.33 3.3-8.43 5.36-14.03 6.2q2.27 7.09 3.69 14.25c0.89-1.71 2.23-3.35 4.06-4.86 4.23-3.5 10.28-5.64 16.8-6.14 1.27 4.31-0.23 8.85-4.65 12.35-3.9 3.1-9.34 4.87-15.07 5.38 2.12 15.08 1.38 30.32-2.31 45.48q-2.31-0.19-4.62-0.38c4.19-17.17 4.53-34.46 1.18-51.47-5.81 0.05-11.71-1.09-16.7-3.37-5.67-2.59-9.12-6.11-10.29-9.84 6.44-0.71 13.43 0.04 19.27 2.61 2.53 1.11 4.62 2.47 6.23 3.98q-1.79-7.04-4.42-13.99c-5.77 0.37-11.84-0.43-17.21-2.41-6.08-2.25-10.14-5.57-11.96-9.22 6.28-1.06 13.35-0.72 19.62 1.51 2.71 0.96 5.02 2.2 6.89 3.61q-3.02-6.9-6.87-13.69c-5.67 0.71-11.84 0.25-17.53-1.42z"/>
			<g id="&lt;Group&gt;">
				<g id="&lt;Group&gt;">
					<path id="&lt;Path&gt;" class="s5" d="m705.69 255.76c-18.27 25.61-26.39 51.41-25.29 74.45 28.97-16.04 54.73-37.73 73-63.34 18.27-25.61 26.39-51.41 25.29-74.45-28.97 16.04-54.73 37.73-73 63.34z"/>
					<path id="&lt;Path&gt;" class="s7" d="m778.69 192.42l-98.29 137.79c28.97-16.04 54.73-37.73 73-63.34 18.27-25.61 26.39-51.41 25.29-74.45z"/>
				</g>
				<g id="&lt;Group&gt;">
					<path id="&lt;Path&gt;" class="s5" d="m737.78 282.88c-20.89 19.48-33.53 39.87-38.01 58.7 27.39-10.89 53.47-26.61 74.36-46.09 20.88-19.48 33.53-39.86 38.01-58.7-27.39 10.89-53.48 26.61-74.36 46.09z"/>
					<path id="&lt;Path&gt;" class="s7" d="m812.14 236.79l-112.37 104.79c27.39-10.89 53.47-26.61 74.36-46.09 20.88-19.48 33.53-39.86 38.01-58.7z"/>
				</g>
				<g id="&lt;Group&gt;">
					<path id="&lt;Path&gt;" class="s5" d="m674.36 233.84c-7.5 27.34-5.06 53.57 5.23 75.92 21.74-19.37 38.09-43.85 45.59-71.19 7.5-27.34 5.06-53.57-5.23-75.92-21.74 19.37-38.09 43.85-45.59 71.19z"/>
					<path id="&lt;Path&gt;" class="s7" d="m719.95 162.65l-40.36 147.11c21.74-19.37 38.09-43.85 45.59-71.19 7.5-27.34 5.06-53.57-5.23-75.92z"/>
				</g>
				<g id="&lt;Group&gt;">
					<path id="&lt;Path&gt;" class="s5" d="m637.7 261.26c1.43 22.9 10.61 44.03 25.1 61.3 12.3-17.67 18.83-39.02 17.4-61.93-1.42-22.91-10.61-44.03-25.09-61.31-12.3 17.68-18.84 39.03-17.41 61.94z"/>
					<path id="&lt;Path&gt;" class="s7" d="m655.11 199.32l7.69 123.24c12.3-17.67 18.83-39.02 17.4-61.93-1.42-22.91-10.61-44.03-25.09-61.31z"/>
				</g>
			</g>
			<path id="&lt;Path&gt;" class="s6" d="m1699.53 172.06c-7.46-2.2-12.81-5.77-15.66-9.87 7.01-1.64 15.23-1.69 22.89 0.48 3.32 0.93 6.24 2.21 8.68 3.72q-4.89-7.77-10.71-15.37c-6.38 1.18-13.58 1.05-20.48-0.52-7.81-1.78-13.78-5.05-17.36-8.99 6.68-2.03 14.85-2.55 22.86-0.81 3.47 0.75 6.6 1.87 9.3 3.24q-3.7-4.44-7.73-8.8c-5.93-1.74-11.15-4.46-14.85-8.05-4.49-4.36-5.93-9.21-4.66-13.7 7.8 1.12 15.21 4.17 19.9 8.73 3.86 3.74 5.23 7.87 4.38 11.63q7.27 7.87 13.5 15.98c-0.06-2.07 0.42-4.16 1.52-6.2 2.54-4.71 7.9-8.27 14.79-10.08 4.03 4.55 5.13 9.89 2.38 14.64-2.42 4.2-7.36 7.21-13.36 8.89q5.46 7.78 9.96 15.73c0.32-2.05 1.17-4.09 2.63-6.05 3.37-4.52 9.35-7.75 16.53-9.16 3.19 4.73 3.33 10.09-0.26 14.64-3.16 4.03-8.61 6.74-14.88 8.07q4.05 8.02 7.12 16.17c0.68-2.02 1.89-4 3.69-5.86 4.16-4.3 10.69-7.16 18.09-8.16 2.34 4.88 1.52 10.2-2.86 14.52-3.85 3.82-9.76 6.21-16.25 7.17q2.62 8.21 4.24 16.5c1.03-1.98 2.59-3.88 4.71-5.63 4.9-4.04 11.91-6.52 19.46-7.08 1.46 4.98-0.29 10.23-5.41 14.28-4.52 3.59-10.82 5.63-17.45 6.22 2.42 17.45 1.53 35.09-2.78 52.64q-2.67-0.23-5.34-0.45c4.89-19.87 5.32-39.87 1.48-59.57-6.73 0.06-13.56-1.27-19.33-3.91-6.55-3-10.54-7.08-11.89-11.4 7.46-0.81 15.55 0.06 22.3 3.03 2.93 1.29 5.34 2.87 7.2 4.62q-2.05-8.15-5.09-16.2c-6.68 0.43-13.69-0.5-19.9-2.8-7.04-2.61-11.73-6.45-13.83-10.67 7.27-1.23 15.46-0.83 22.71 1.76 3.13 1.11 5.8 2.54 7.97 4.18q-3.49-7.99-7.93-15.85c-6.56 0.82-13.7 0.28-20.28-1.66z"/>
			<g id="&lt;Group&gt;">
				<g id="&lt;Group&gt;">
					<path id="&lt;Path&gt;" class="s5" d="m1685.61 249.51c28.38 22.73 46.93 46.88 55.37 69.47-34.85-12.09-68.91-30.09-97.28-52.81-28.37-22.73-46.93-46.88-55.37-69.47 34.85 12.09 68.91 30.09 97.28 52.81z"/>
					<path id="&lt;Path&gt;" class="s7" d="m1588.33 196.7l152.65 122.28c-34.85-12.09-68.91-30.09-97.28-52.81-28.37-22.73-46.93-46.88-55.37-69.47z"/>
				</g>
				<g id="&lt;Group&gt;">
					<path id="&lt;Path&gt;" class="s5" d="m1665.54 279.86c28.39 16.43 49.12 34.76 61.26 52.56-31.19-7.26-63.1-19.4-91.49-35.83-28.39-16.44-49.12-34.76-61.26-52.57 31.19 7.27 63.09 19.41 91.49 35.84z"/>
					<path id="&lt;Path&gt;" class="s7" d="m1574.05 244.02l152.75 88.4c-31.19-7.26-63.1-19.4-91.49-35.83-28.39-16.44-49.12-34.76-61.26-52.57z"/>
				</g>
				<g id="&lt;Group&gt;">
					<path id="&lt;Path&gt;" class="s5" d="m1707.1 224.34c18.59 25.73 27.03 51.58 26.23 74.61-29.18-16.22-55.21-38.08-73.81-63.81-18.59-25.73-27.03-51.58-26.23-74.61 29.18 16.22 55.21 38.08 73.81 63.81z"/>
					<path id="&lt;Path&gt;" class="s7" d="m1633.29 160.53l100.04 138.42c-29.18-16.22-55.21-38.08-73.81-63.81-18.59-25.73-27.03-51.58-26.23-74.61z"/>
				</g>
				<g id="&lt;Group&gt;">
					<path id="&lt;Path&gt;" class="s5" d="m1754.13 246.58c8.07 22.5 7.83 44.2 0.85 62.8-19.28-15.72-34.46-35.73-42.52-58.23-8.06-22.49-7.83-44.2-0.85-62.8 19.28 15.72 34.46 35.73 42.52 58.23z"/>
					<path id="&lt;Path&gt;" class="s7" d="m1711.61 188.35l43.37 121.03c-19.28-15.72-34.46-35.73-42.52-58.23-8.06-22.49-7.83-44.2-0.85-62.8z"/>
				</g>
			</g>
			<path id="&lt;Path&gt;" class="s5" d="m1006.91 325.61c-1.18-4.68-8.05-8.43-16.71-8.75-3.47-0.13-6.75 0.32-9.58 1.18-4.19-5.26-13.48-8.96-24.3-9.01-3.37-0.02-6.59 0.33-9.56 0.96-7.39-7.86-21.95-13.26-38.72-13.35-16.78-0.09-31.36 5.17-38.75 12.96-4.65-2.21-10.62-3.56-17.14-3.59-3.49-0.02-6.82 0.34-9.88 1.02-4.54-10.24-20.87-17.89-40.33-17.99-8.16-0.04-15.76 1.25-22.18 3.52-8.64-10.28-27.08-17.44-48.45-17.56-24.4-0.12-44.99 8.99-51.5 21.58-16.58 1.35-29.28 9.4-29.28 19.18 0 2.85 1.08 5.55 3.01 8z"/>
			<path id="&lt;Path&gt;" class="s5" d="m1400.77 327.67c1.18-4.67 8.05-8.35 16.71-8.58 3.46-0.09 6.74 0.39 9.58 1.29 4.19-5.22 13.48-8.82 24.3-8.77 3.37 0.02 6.58 0.41 9.55 1.07 7.4-7.78 21.96-13.03 38.73-12.94 16.78 0.08 31.36 5.49 38.74 13.36 4.65-2.16 10.63-3.45 17.15-3.41 3.49 0.01 6.82 0.41 9.88 1.12 4.54-10.19 20.87-17.67 40.33-17.57 8.16 0.05 15.76 1.42 22.18 3.75 8.64-10.18 27.08-17.16 48.45-17.04 24.4 0.12 44.99 9.46 51.5 22.11 16.58 1.53 29.28 9.7 29.28 19.49 0 2.85-1.08 5.54-3.01 7.97z"/>
			<path id="&lt;Path&gt;" class="s4" d="m1753.53 321.03l48.12-8.91q-0.59-1.06-1.24-2.09l-24.85 1.14 22.13-5.01c-4.64-5.97-10.97-11.43-18.65-16.19l-34.32 11.78 29.84-14.39q-1.58-0.86-3.21-1.68l-20.97 6.48 15.33-9.13c-10.52-4.6-22.63-8.09-35.77-10.16l-14.81 12.34 5.3-13.56q-2.23-0.23-4.5-0.4l-12.89 17.46 3.52-17.93q-1.75-0.04-3.52-0.05c-14.58-0.08-28.45 1.56-41.02 4.58-1.53 6.86-2.91 13.24-2.91 13.88 0 0.69-2.22-5.42-4.51-11.9q-1.7 0.5-3.36 1.04l2.2 21.4-9.46-18.83c-10.85 4.23-20.19 9.61-27.45 15.85l5.44 13.62-9.93-9.4q-3.11 3.24-5.49 6.71l19.83 12.69-22.84-7.59c-2.54 5.05-3.89 10.4-3.89 15.93l206.79 1.08c0-4.66-0.97-9.19-2.79-13.55z"/>
			<path id="&lt;Path&gt;" class="s4" d="m705.17 315.55l48.12-8.91q-0.58-1.06-1.24-2.1l-24.85 1.15 22.13-5.02c-4.63-5.97-10.96-11.43-18.64-16.18l-34.33 11.78 29.84-14.39q-1.57-0.86-3.21-1.68l-20.97 6.48 15.33-9.13c-10.52-4.6-22.63-8.09-35.77-10.16l-14.8 12.34 5.29-13.56q-2.23-0.23-4.5-0.4l-12.88 17.45 3.51-17.92q-1.75-0.04-3.51-0.05c-14.58-0.08-28.45 1.56-41.03 4.57-1.53 6.87-2.91 13.25-2.91 13.89 0 0.69-2.22-5.43-4.51-11.9q-1.7 0.5-3.36 1.03l2.21 21.41-9.46-18.83c-10.86 4.23-20.19 9.61-27.46 15.84l5.45 13.63-9.93-9.4q-3.12 3.24-5.49 6.71l19.82 12.69-22.84-7.6c-2.53 5.06-3.89 10.41-3.89 15.94l206.79 1.08c0-4.66-0.96-9.2-2.78-13.55z"/>
			<path id="&lt;Path&gt;" fill-rule="evenodd" class="s6" d="m1772.72 329.62v99.24l-1171.84-6.13v-99.24z"/>
			<path id="&lt;Path&gt;" class="s6" d="m1323.17 329.78c-4.07-2.21-8.76-4.05-13.84-5.43 4.26 0.05 8.51 0.47 12.56 1.25q-3.69-2.53-7.38-5.07c4.3 0.96 8.4 2.22 12.17 3.73-1.8-2.69-4.39-5.21-7.64-7.43 5.58 1.25 10.49 3.47 13.87 6.28-0.22-2.78 0.58-5.59 2.33-8.18q1.21 3.26 2.43 6.52c1.84-1.87 4.61-3.45 7.91-4.51q-1.55 3.61-3.11 7.22c2.96-1.63 6.81-2.74 10.9-3.15q-2.94 2.82-5.88 5.64c3.88-1.13 8.38-1.59 12.74-1.3-5.35 1.54-10.06 3.77-13.68 6.47-7.88-0.8-15.5-1.24-23.38-2.04z"/>
			<g id="&lt;Group&gt;">
				<path id="&lt;Path&gt;" class="s8" d="m1772.72 428.86v-63.64l-1171.84 18.9v1.54l1071.81 5.6-472.29 34.6z"/>
				<path id="&lt;Path&gt;" class="s8" d="m600.88 337.45l856.95 4.49-856.95 12.77v2.46l1171.84 6.13v-33.68l-1171.84 5.47z"/>
			</g>
			<path id="&lt;Path&gt;" class="s6" d="m1284.73 363.28c-4.57-2.48-9.85-4.55-15.55-6.11 4.78 0.05 9.57 0.53 14.11 1.41q-4.15-2.85-8.29-5.7c4.83 1.08 9.43 2.49 13.67 4.19-2.02-3.02-4.93-5.85-8.58-8.34 6.27 1.4 11.78 3.89 15.59 7.05-0.25-3.13 0.65-6.28 2.61-9.19q1.37 3.66 2.73 7.33c2.07-2.11 5.19-3.89 8.9-5.07q-1.75 4.05-3.5 8.11c3.33-1.83 7.66-3.09 12.25-3.54q-3.3 3.17-6.61 6.34c4.36-1.27 9.42-1.79 14.32-1.46-6.01 1.72-11.31 4.23-15.38 7.26-8.85-0.89-17.42-1.39-26.27-2.28z"/>
			<path id="&lt;Path&gt;" class="s9" d="m913.79 163.67c-130.2-0.68-235.75-60.98-235.75-134.67v-69.21l471.51 2.47v69.2c0 73.7-105.55 132.89-235.76 132.21z"/>
			<path id="&lt;Path&gt;" class="s9" d="m1327.71 121.08c-130.21-0.68-235.76-60.98-235.76-134.67v-69.21l471.51 2.47v69.21c0 73.69-105.55 132.88-235.75 132.2z"/>
			<path id="&lt;Path&gt;" class="s4" d="m1017.45 430.93c-6.83-14.73-18.57-28.58-30.24-42.33 15.85 7.32 29.61 16.1 40.56 25.88-0.26-18.33-7.04-36.89-14.55-54.75 13.23 15.85 24.23 31.01 32.37 47.89 5.36-18.79 8.76-36.13 6.86-55.18 9.39 18.11 15.29 36.32 15.36 55.14 13.65-18.84 24.71-36.92 38.36-55.76-2.97 16.82-7.99 34.47-16.18 50.7 18.02-10.48 36.32-21.79 54.35-32.27-9.4 12.51-21.29 25.37-35.98 36.11 17.88-7.07 34.94-13.05 52.82-20.12-10.93 9.95-23.34 21.01-37.86 29.34 16.32-3.19 33.03-5.35 49.35-8.55-18.67 7.43-35.94 16.34-53.68 24.47-13.91 6.36-33.66 9.66-51.46 8.18-17.81-1.48-45.5 1.11-50.08-8.75z"/>
			<path id="&lt;Path&gt;" class="s5" d="m1400.12 422.25c1.9-7.53 12.97-13.45 26.91-13.82 5.58-0.14 10.86 0.63 15.42 2.07 6.74-8.4 21.71-14.2 39.13-14.11 5.43 0.03 10.6 0.65 15.38 1.72 11.9-12.53 35.36-20.98 62.36-20.84 27.01 0.14 50.48 8.85 62.37 21.52 7.49-3.49 17.11-5.56 27.6-5.5 5.63 0.03 10.99 0.67 15.92 1.8 7.31-16.4 33.61-28.44 64.93-28.28 13.14 0.07 25.38 2.29 35.72 6.04 13.9-16.4 43.6-27.62 78-27.44 39.29 0.2 72.44 15.23 82.92 35.6 26.7 2.46 47.15 15.62 47.15 31.38 0 4.58-1.74 8.92-4.85 12.83z"/>
		</g>
	</g>
	<path id="&lt;Path&gt;" class="s5" d="m1071.52 404.17c-1.9-7.54-12.97-13.58-26.9-14.09-5.58-0.21-10.87 0.51-15.43 1.91-6.74-8.47-21.71-14.43-39.13-14.52-5.43-0.03-10.6 0.53-15.38 1.55-11.9-12.66-35.36-21.35-62.36-21.49-27.01-0.14-50.48 8.32-62.37 20.86-7.49-3.56-17.11-5.73-27.6-5.78-5.63-0.03-10.99 0.55-15.92 1.63-7.31-16.48-33.61-28.79-64.93-28.95-13.14-0.07-25.38 2.01-35.72 5.66-13.9-16.54-43.6-28.08-78-28.26-39.29-0.21-72.44 14.47-82.92 34.74-26.7 2.18-47.15 15.13-47.15 30.88 0 4.59 1.74 8.94 4.85 12.88z"/>
</svg>